M48
;Layer_Color=9474304
;FILE_FORMAT=2:3
INCH,LZ
;TYPE=PLATED
T1F00S00C0.010
T2F00S00C0.015
T3F00S00C0.017
T4F00S00C0.039
;TYPE=NON_PLATED
T5F00S00C0.037
%
T01
X03115Y035
X03165Y037
X0313Y0387
X03295Y03625
X03366Y03623
X03365Y03655
X0341Y0373
X03504Y03684
X0335Y03395
X03985Y03425
X0416Y0357
X04065Y0368
X04141Y0379
X03973Y03793
T02
X02945Y0345
T03
X02645Y03305
Y03473
Y0356
X0272
X02645Y03645
X0261Y03854
Y03993
X0285Y03933
X0299Y03575
X0295Y03243
X03092Y03245
X03195Y03243
X03705Y03318
X03725Y03479
X04Y03493
X04095Y03554
X0423Y03503
X0435Y0325
X0445Y03345
X04475Y03903
Y04018
X0429
X03645Y04005
X03405
X03165Y04008
X03495Y0357
T04
X0331Y033
X0341
X0351
X0361
X04365Y03426
Y03526
Y03626
Y03726
Y03826
X0411Y03985
X0401
T05
X0276Y03473
Y03647
M30
