G04*
G04 #@! TF.GenerationSoftware,Altium Limited,Altium Designer,19.0.15 (446)*
G04*
G04 Layer_Physical_Order=2*
G04 Layer_Color=16711680*
%FSLAX23Y23*%
%MOIN*%
G70*
G01*
G75*
%ADD21R,0.035X0.028*%
%ADD44C,0.020*%
%ADD45C,0.010*%
G04:AMPARAMS|DCode=48|XSize=80mil|YSize=60mil|CornerRadius=0mil|HoleSize=0mil|Usage=FLASHONLY|Rotation=270.000|XOffset=0mil|YOffset=0mil|HoleType=Round|Shape=Octagon|*
%AMOCTAGOND48*
4,1,8,-0.015,-0.040,0.015,-0.040,0.030,-0.025,0.030,0.025,0.015,0.040,-0.015,0.040,-0.030,0.025,-0.030,-0.025,-0.015,-0.040,0.0*
%
%ADD48OCTAGOND48*%

G04:AMPARAMS|DCode=49|XSize=80mil|YSize=60mil|CornerRadius=0mil|HoleSize=0mil|Usage=FLASHONLY|Rotation=180.000|XOffset=0mil|YOffset=0mil|HoleType=Round|Shape=Octagon|*
%AMOCTAGOND49*
4,1,8,-0.040,0.015,-0.040,-0.015,-0.025,-0.030,0.025,-0.030,0.040,-0.015,0.040,0.015,0.025,0.030,-0.025,0.030,-0.040,0.015,0.0*
%
%ADD49OCTAGOND49*%

%ADD50C,0.037*%
%ADD51C,0.035*%
%ADD52C,0.020*%
%ADD53C,0.030*%
%ADD54R,0.031X0.035*%
%ADD55R,0.063X0.094*%
%ADD56R,0.079X0.059*%
%ADD57R,0.079X0.150*%
G36*
X4505Y3210D02*
X2555D01*
Y4045D01*
X4505D01*
Y3210D01*
D02*
G37*
%LPC*%
G36*
X3165Y4024D02*
X3159Y4023D01*
X3154Y4019D01*
X3148Y4013D01*
X3148Y4014D01*
X3148Y4014D01*
X3148Y4014D01*
X3146Y4013D01*
X3144Y4012D01*
X3144Y4012D01*
X3144Y4012D01*
X3143Y4010D01*
X3142Y4009D01*
X3142Y4009D01*
X3142Y4009D01*
X3142Y4009D01*
X3142Y4009D01*
X3142Y4008D01*
X3142Y4008D01*
X3141Y4007D01*
X3141Y4006D01*
X3138Y4003D01*
X3136Y4002D01*
X3136Y4001D01*
X3125Y3990D01*
X3123Y3990D01*
X3120Y3991D01*
X3117Y3991D01*
X3115Y3992D01*
X3114Y3992D01*
X3113Y3993D01*
X3112Y3993D01*
X3112Y3994D01*
X3112Y3994D01*
X3112Y3995D01*
X3111Y3997D01*
X3110Y3999D01*
X3110Y3999D01*
X3110Y3999D01*
X3108Y4000D01*
X3106Y4000D01*
X3106Y4000D01*
X3106Y4000D01*
X3104Y3999D01*
X3102Y3999D01*
X3102Y3998D01*
X3102Y3998D01*
X3102Y3996D01*
X3101Y3995D01*
Y3990D01*
X3096D01*
X3091Y3989D01*
X3086Y3986D01*
X3064Y3964D01*
X3061Y3959D01*
X3060Y3953D01*
Y3950D01*
X3061Y3944D01*
X3064Y3939D01*
X3069Y3936D01*
X3075Y3935D01*
X3081Y3936D01*
X3086Y3939D01*
X3089Y3944D01*
X3090Y3946D01*
X3096Y3953D01*
X3098Y3953D01*
X3102Y3952D01*
X3102Y3951D01*
X3102Y3951D01*
X3102Y3951D01*
X3104Y3950D01*
X3106Y3949D01*
X3106Y3950D01*
X3106Y3949D01*
X3108Y3950D01*
X3110Y3951D01*
X3110Y3951D01*
X3110Y3951D01*
X3111Y3953D01*
X3112Y3954D01*
X3112Y3955D01*
X3112Y3956D01*
X3112Y3956D01*
X3113Y3957D01*
X3114Y3957D01*
X3115Y3958D01*
X3117Y3959D01*
X3120Y3959D01*
X3123Y3959D01*
X3127Y3959D01*
X3127Y3960D01*
X3131D01*
X3137Y3961D01*
X3142Y3964D01*
X3158Y3980D01*
X3158Y3980D01*
X3161Y3982D01*
X3163Y3984D01*
X3164Y3985D01*
X3164Y3985D01*
X3165Y3985D01*
X3165Y3985D01*
X3165Y3986D01*
X3165Y3986D01*
X3166Y3986D01*
X3166Y3986D01*
X3167Y3986D01*
X3169Y3987D01*
X3169Y3987D01*
X3169Y3987D01*
X3170Y3989D01*
X3170Y3991D01*
X3170Y3991D01*
X3170Y3991D01*
X3170Y3992D01*
X3176Y3998D01*
X3179Y4003D01*
X3180Y4008D01*
X3179Y4014D01*
X3176Y4019D01*
X3171Y4023D01*
X3165Y4024D01*
D02*
G37*
G36*
X4028Y4030D02*
X3993D01*
X3975Y4012D01*
Y3957D01*
X3993Y3940D01*
X4028D01*
X4045Y3957D01*
Y4012D01*
X4028Y4030D01*
D02*
G37*
G36*
X2993Y4002D02*
X2920D01*
Y3898D01*
X2936D01*
X2936Y3897D01*
X2938Y3897D01*
X2938Y3897D01*
X2938Y3897D01*
X2939Y3896D01*
X2940Y3895D01*
X2940Y3894D01*
X2941Y3892D01*
X2941Y3889D01*
X2941Y3888D01*
X2915Y3861D01*
X2913D01*
X2913Y3861D01*
X2913Y3861D01*
X2913Y3861D01*
X2893Y3861D01*
X2893Y3861D01*
X2893Y3861D01*
X2893Y3861D01*
X2893Y3861D01*
X2883D01*
X2881Y3861D01*
X2809D01*
Y3792D01*
X2898D01*
Y3825D01*
X2898Y3825D01*
X2898Y3827D01*
X2898Y3827D01*
X2899Y3827D01*
X2899Y3828D01*
X2900Y3829D01*
X2902Y3829D01*
X2904Y3830D01*
X2906Y3830D01*
X2909Y3830D01*
X2913Y3830D01*
X2913Y3831D01*
X2921D01*
X2927Y3832D01*
X2932Y3835D01*
X2968Y3871D01*
X2971Y3876D01*
X2972Y3882D01*
Y3882D01*
X2972Y3883D01*
X2972Y3886D01*
X2973Y3889D01*
X2973Y3892D01*
X2974Y3894D01*
X2974Y3895D01*
X2975Y3896D01*
X2975Y3897D01*
X2976Y3897D01*
X2976Y3897D01*
X2977Y3897D01*
X2978Y3898D01*
X2993D01*
Y4002D01*
D02*
G37*
G36*
X4392Y3861D02*
X4338D01*
X4320Y3843D01*
Y3808D01*
X4338Y3791D01*
X4392D01*
X4410Y3808D01*
Y3843D01*
X4392Y3861D01*
D02*
G37*
G36*
X4101Y3845D02*
X3510D01*
X3504Y3844D01*
X3499Y3841D01*
X3399Y3741D01*
X3396Y3736D01*
X3395Y3730D01*
X3396Y3724D01*
X3399Y3719D01*
X3404Y3716D01*
X3410Y3715D01*
X3416Y3716D01*
X3421Y3719D01*
X3516Y3815D01*
X4095D01*
X4130Y3779D01*
X4135Y3776D01*
X4141Y3775D01*
X4147Y3776D01*
X4152Y3779D01*
X4155Y3784D01*
X4156Y3790D01*
X4155Y3796D01*
X4152Y3801D01*
X4112Y3841D01*
X4107Y3844D01*
X4101Y3845D01*
D02*
G37*
G36*
X3130Y3885D02*
X3124Y3884D01*
X3119Y3881D01*
X3116Y3876D01*
X3115Y3870D01*
Y3831D01*
X3115Y3830D01*
X3114Y3827D01*
X3114Y3824D01*
X3114Y3821D01*
X3113Y3819D01*
X3113Y3818D01*
X3112Y3817D01*
X3112Y3816D01*
X3111Y3816D01*
X3111Y3816D01*
X3109Y3815D01*
X3109Y3815D01*
X3057D01*
Y3757D01*
X3057Y3757D01*
X3057Y3756D01*
X3056Y3755D01*
X3056Y3755D01*
X3056Y3754D01*
X3055Y3754D01*
X3053Y3753D01*
X3051Y3753D01*
X3048Y3752D01*
X3045Y3752D01*
X3042Y3752D01*
X3042Y3752D01*
X2913D01*
X2913Y3752D01*
X2909Y3752D01*
X2906Y3752D01*
X2904Y3753D01*
X2902Y3753D01*
X2900Y3754D01*
X2899Y3754D01*
X2899Y3755D01*
X2898Y3755D01*
X2898Y3756D01*
X2898Y3757D01*
X2898Y3757D01*
Y3771D01*
X2809D01*
Y3702D01*
X2898D01*
Y3715D01*
X2898Y3716D01*
X2898Y3717D01*
X2898Y3718D01*
X2899Y3718D01*
X2899Y3718D01*
X2900Y3719D01*
X2902Y3720D01*
X2904Y3720D01*
X2906Y3721D01*
X2909Y3721D01*
X2913Y3721D01*
X2913Y3721D01*
X3042D01*
X3042Y3721D01*
X3045Y3721D01*
X3048Y3721D01*
X3051Y3720D01*
X3053Y3720D01*
X3055Y3719D01*
X3056Y3718D01*
X3056Y3718D01*
X3056Y3717D01*
X3057Y3717D01*
X3057Y3716D01*
X3057Y3716D01*
Y3655D01*
X3071D01*
X3071Y3655D01*
X3072Y3655D01*
X3073Y3655D01*
X3073Y3655D01*
X3074Y3654D01*
X3074Y3653D01*
X3075Y3652D01*
X3075Y3650D01*
X3076Y3647D01*
X3076Y3644D01*
X3076Y3640D01*
X3076Y3640D01*
Y3598D01*
X3076Y3597D01*
X3076Y3594D01*
X3076Y3591D01*
X3075Y3588D01*
X3075Y3586D01*
X3074Y3585D01*
X3074Y3584D01*
X3073Y3583D01*
X3073Y3583D01*
X3072Y3583D01*
X3071Y3583D01*
X3070Y3582D01*
X3034D01*
Y3517D01*
X3033Y3517D01*
X3034Y3517D01*
Y3508D01*
X3033Y3507D01*
X3032Y3505D01*
X3030Y3502D01*
X3024Y3496D01*
X3021Y3492D01*
X3020Y3491D01*
X2966Y3437D01*
X2962Y3440D01*
X2964Y3443D01*
X2965Y3450D01*
X2964Y3458D01*
X2959Y3465D01*
X2953Y3469D01*
X2945Y3471D01*
X2937Y3469D01*
X2931Y3465D01*
X2926Y3458D01*
X2925Y3454D01*
X2923Y3451D01*
X2873D01*
X2873Y3451D01*
X2866Y3451D01*
X2860Y3452D01*
X2859Y3452D01*
X2858Y3452D01*
Y3455D01*
X2853D01*
X2853Y3455D01*
X2852Y3455D01*
X2852D01*
X2851Y3455D01*
X2851Y3455D01*
X2812D01*
Y3417D01*
X2851D01*
X2851Y3417D01*
X2852Y3417D01*
X2852D01*
X2853Y3417D01*
X2853Y3417D01*
X2858D01*
Y3419D01*
X2858Y3420D01*
X2869Y3420D01*
X2873Y3420D01*
X2873Y3421D01*
X2929D01*
X2935Y3422D01*
X2940Y3425D01*
X2945Y3430D01*
X2945Y3430D01*
X2953Y3432D01*
X2955Y3433D01*
X2958Y3429D01*
X2944Y3415D01*
X2944Y3415D01*
X2944Y3415D01*
X2944Y3415D01*
X2944Y3415D01*
X2936Y3408D01*
X2933Y3405D01*
X2930Y3403D01*
X2928Y3402D01*
X2920D01*
X2920Y3402D01*
X2919Y3402D01*
X2919Y3402D01*
X2919Y3402D01*
X2909D01*
Y3357D01*
X2948D01*
X2951Y3357D01*
X2952Y3352D01*
Y3339D01*
X2952Y3338D01*
X2952Y3331D01*
X2952Y3329D01*
X2951Y3326D01*
X2951Y3325D01*
X2950Y3324D01*
X2950Y3323D01*
X2947D01*
Y3319D01*
X2946Y3318D01*
X2947Y3318D01*
X2946Y3317D01*
X2947Y3317D01*
Y3278D01*
X2988D01*
Y3317D01*
X2988Y3317D01*
X2988Y3318D01*
X2988Y3318D01*
X2988Y3319D01*
Y3323D01*
X2985D01*
X2984Y3324D01*
X2984Y3325D01*
X2984Y3326D01*
X2983Y3329D01*
X2983Y3335D01*
X2983Y3338D01*
X2983Y3339D01*
Y3352D01*
X3034Y3404D01*
X3035Y3404D01*
X3043Y3411D01*
X3046Y3414D01*
X3049Y3412D01*
X3052Y3410D01*
X3063Y3401D01*
X3067Y3397D01*
X3067Y3397D01*
X3082Y3381D01*
Y3346D01*
X3127D01*
X3128Y3346D01*
X3132D01*
X3133Y3346D01*
X3171D01*
X3171Y3346D01*
X3172Y3346D01*
X3172D01*
X3173Y3345D01*
X3173Y3346D01*
X3178D01*
Y3348D01*
X3178Y3348D01*
X3189Y3349D01*
X3193Y3349D01*
X3193Y3349D01*
X3320D01*
X3325Y3350D01*
X3330Y3354D01*
X3361Y3384D01*
X3364Y3389D01*
X3365Y3395D01*
X3364Y3401D01*
X3361Y3406D01*
X3356Y3409D01*
X3350Y3410D01*
X3344Y3409D01*
X3339Y3406D01*
X3313Y3380D01*
X3193D01*
X3193Y3380D01*
X3186Y3380D01*
X3180Y3381D01*
X3179Y3381D01*
X3178Y3381D01*
Y3383D01*
X3173D01*
X3173Y3384D01*
X3172Y3383D01*
X3172D01*
X3171Y3383D01*
X3171Y3383D01*
X3137D01*
X3135Y3388D01*
X3143Y3397D01*
X3143Y3397D01*
X3148Y3401D01*
X3155Y3407D01*
X3158Y3410D01*
X3161Y3412D01*
X3164Y3414D01*
X3167Y3415D01*
X3169Y3416D01*
X3171Y3416D01*
X3173Y3416D01*
X3174Y3417D01*
X3174Y3417D01*
X3178Y3417D01*
X3178Y3421D01*
X3178Y3422D01*
X3178Y3423D01*
X3178Y3423D01*
X3178Y3423D01*
Y3454D01*
X3148D01*
X3146Y3459D01*
X3176Y3489D01*
X3179Y3494D01*
X3180Y3500D01*
Y3680D01*
X3180Y3680D01*
X3180Y3681D01*
X3181Y3686D01*
X3181Y3687D01*
X3184Y3692D01*
X3185Y3700D01*
X3184Y3708D01*
X3179Y3714D01*
X3173Y3719D01*
X3165Y3720D01*
X3157Y3719D01*
X3151Y3715D01*
X3150Y3715D01*
X3146Y3716D01*
Y3810D01*
X3146Y3810D01*
X3146Y3810D01*
X3146Y3810D01*
X3145Y3830D01*
X3145Y3831D01*
Y3870D01*
X3144Y3876D01*
X3141Y3881D01*
X3136Y3884D01*
X3130Y3885D01*
D02*
G37*
G36*
X4392Y3761D02*
X4338D01*
X4320Y3743D01*
Y3708D01*
X4338Y3691D01*
X4392D01*
X4410Y3708D01*
Y3743D01*
X4392Y3761D01*
D02*
G37*
G36*
X2853Y3662D02*
X2843D01*
X2837Y3660D01*
X2832Y3657D01*
X2821Y3646D01*
X2818Y3649D01*
X2816Y3650D01*
X2815Y3651D01*
X2814Y3650D01*
X2814Y3651D01*
X2813Y3650D01*
X2811Y3650D01*
X2811Y3649D01*
X2810Y3649D01*
X2810Y3648D01*
X2809Y3646D01*
X2809Y3646D01*
X2809Y3645D01*
X2809Y3644D01*
X2810Y3642D01*
X2810Y3641D01*
X2810Y3641D01*
X2810Y3640D01*
X2810Y3639D01*
X2809Y3637D01*
X2808Y3635D01*
X2806Y3632D01*
X2800Y3625D01*
X2796Y3621D01*
X2796Y3620D01*
X2753Y3578D01*
X2743D01*
X2742Y3578D01*
X2739Y3578D01*
X2736Y3578D01*
X2734Y3579D01*
X2733Y3579D01*
X2733Y3579D01*
X2733Y3579D01*
X2733Y3579D01*
X2733Y3579D01*
X2733Y3579D01*
X2732Y3579D01*
X2731Y3579D01*
X2729Y3579D01*
X2729Y3579D01*
X2729Y3579D01*
X2727Y3578D01*
X2727Y3578D01*
X2723D01*
X2717Y3577D01*
X2712Y3574D01*
X2709Y3571D01*
X2706Y3566D01*
X2705Y3560D01*
X2706Y3554D01*
X2709Y3549D01*
X2714Y3546D01*
X2720Y3545D01*
X2726Y3546D01*
X2729Y3546D01*
X2731Y3546D01*
X2733Y3545D01*
X2735Y3545D01*
X2735Y3545D01*
X2735Y3545D01*
X2735Y3545D01*
X2737Y3546D01*
X2738Y3546D01*
X2738Y3546D01*
X2738Y3546D01*
X2738Y3546D01*
X2738Y3546D01*
X2739Y3547D01*
X2739Y3547D01*
X2740Y3547D01*
X2741Y3547D01*
X2742Y3547D01*
X2745Y3547D01*
X2747Y3547D01*
X2747Y3548D01*
X2748D01*
X2748Y3548D01*
X2748Y3548D01*
X2760D01*
X2766Y3549D01*
X2771Y3552D01*
X2817Y3599D01*
X2818Y3599D01*
X2825Y3606D01*
X2829Y3609D01*
X2832Y3611D01*
X2834Y3612D01*
X2836Y3613D01*
X2837Y3613D01*
X2838Y3613D01*
X2838Y3613D01*
X2839Y3613D01*
X2841Y3612D01*
X2842Y3612D01*
X2843Y3612D01*
X2843Y3612D01*
X2844Y3613D01*
X2846Y3613D01*
X2846Y3614D01*
X2847Y3614D01*
X2847Y3616D01*
X2848Y3617D01*
X2847Y3618D01*
X2848Y3618D01*
X2847Y3619D01*
X2846Y3621D01*
X2843Y3624D01*
X2850Y3631D01*
X2853D01*
X2859Y3632D01*
X2864Y3636D01*
X2867Y3640D01*
X2869Y3646D01*
X2867Y3652D01*
X2864Y3657D01*
X2859Y3660D01*
X2853Y3662D01*
D02*
G37*
G36*
X2760Y3671D02*
X2751Y3669D01*
X2743Y3664D01*
X2738Y3656D01*
X2736Y3647D01*
X2738Y3637D01*
X2743Y3630D01*
X2751Y3624D01*
X2760Y3622D01*
X2769Y3624D01*
X2777Y3630D01*
X2782Y3637D01*
X2784Y3647D01*
X2782Y3656D01*
X2777Y3664D01*
X2769Y3669D01*
X2760Y3671D01*
D02*
G37*
G36*
X3973Y3808D02*
X3613D01*
X3607Y3807D01*
X3602Y3804D01*
X3493Y3694D01*
X3490Y3690D01*
X3489Y3684D01*
X3490Y3678D01*
X3491Y3675D01*
X3489Y3670D01*
X3365D01*
X3359Y3669D01*
X3354Y3666D01*
X3351Y3661D01*
X3350Y3655D01*
X3351Y3649D01*
X3354Y3644D01*
X3358Y3642D01*
X3358Y3641D01*
X3359Y3638D01*
X3358Y3636D01*
X3355Y3634D01*
X3352Y3629D01*
X3350Y3623D01*
X3352Y3617D01*
X3355Y3612D01*
X3360Y3609D01*
X3366Y3608D01*
X4101D01*
X4149Y3559D01*
X4154Y3556D01*
X4160Y3555D01*
X4166Y3556D01*
X4171Y3559D01*
X4174Y3564D01*
X4175Y3570D01*
X4174Y3576D01*
X4171Y3581D01*
X4118Y3634D01*
X4113Y3637D01*
X4107Y3638D01*
X4051D01*
X4049Y3643D01*
X4051Y3644D01*
X4076Y3669D01*
X4079Y3674D01*
X4080Y3680D01*
X4079Y3686D01*
X4076Y3691D01*
X4071Y3694D01*
X4065Y3695D01*
X4059Y3694D01*
X4054Y3691D01*
X4034Y3670D01*
X3519D01*
X3517Y3675D01*
X3620Y3778D01*
X3973D01*
X3979Y3779D01*
X3984Y3782D01*
X3987Y3787D01*
X3989Y3793D01*
X3987Y3799D01*
X3984Y3804D01*
X3979Y3807D01*
X3973Y3808D01*
D02*
G37*
G36*
X4392Y3561D02*
X4338D01*
X4320Y3543D01*
Y3508D01*
X4338Y3491D01*
X4392D01*
X4410Y3508D01*
Y3543D01*
X4392Y3561D01*
D02*
G37*
G36*
X3495Y3585D02*
X3489Y3584D01*
X3484Y3581D01*
X3481Y3576D01*
X3480Y3570D01*
X3481Y3564D01*
X3484Y3559D01*
X3575Y3468D01*
X3580Y3465D01*
X3586Y3464D01*
X3725D01*
X3731Y3465D01*
X3736Y3468D01*
X3739Y3473D01*
X3740Y3479D01*
X3739Y3485D01*
X3736Y3490D01*
X3731Y3493D01*
X3725Y3494D01*
X3592D01*
X3506Y3581D01*
X3501Y3584D01*
X3495Y3585D01*
D02*
G37*
G36*
X2760Y3498D02*
X2751Y3496D01*
X2743Y3490D01*
X2738Y3483D01*
X2736Y3473D01*
X2738Y3464D01*
X2743Y3456D01*
X2751Y3451D01*
X2760Y3449D01*
X2769Y3451D01*
X2777Y3456D01*
X2782Y3464D01*
X2784Y3473D01*
X2782Y3483D01*
X2777Y3490D01*
X2769Y3496D01*
X2760Y3498D01*
D02*
G37*
G36*
X3295Y3640D02*
X3289Y3639D01*
X3284Y3636D01*
X3281Y3631D01*
X3280Y3625D01*
X3281Y3619D01*
X3284Y3614D01*
X3483Y3415D01*
X3488Y3411D01*
X3494Y3410D01*
X3985D01*
X3991Y3411D01*
X3996Y3415D01*
X3999Y3420D01*
X4001Y3425D01*
X3999Y3431D01*
X3996Y3436D01*
X3991Y3440D01*
X3985Y3441D01*
X3501D01*
X3306Y3636D01*
X3301Y3639D01*
X3295Y3640D01*
D02*
G37*
G36*
X4392Y3461D02*
X4338D01*
X4320Y3443D01*
Y3408D01*
X4338Y3391D01*
X4392D01*
X4410Y3408D01*
Y3443D01*
X4392Y3461D01*
D02*
G37*
G36*
X2853Y3384D02*
X2852Y3384D01*
X2851Y3384D01*
X2851Y3384D01*
X2812D01*
Y3346D01*
X2851D01*
X2851Y3346D01*
X2852Y3346D01*
X2853Y3346D01*
X2853Y3346D01*
X2858D01*
Y3349D01*
X2858Y3349D01*
X2860Y3349D01*
X2864Y3349D01*
X2877Y3336D01*
X2877Y3331D01*
X2877Y3329D01*
X2876Y3326D01*
X2876Y3325D01*
X2876Y3324D01*
X2875Y3323D01*
X2872D01*
Y3319D01*
X2872Y3318D01*
X2872Y3318D01*
X2872Y3317D01*
X2872Y3317D01*
Y3278D01*
X2913D01*
Y3317D01*
X2914Y3317D01*
X2913Y3318D01*
X2914Y3318D01*
X2913Y3319D01*
Y3323D01*
X2910D01*
X2910Y3324D01*
X2909Y3325D01*
X2909Y3326D01*
X2908Y3329D01*
X2908Y3335D01*
X2908Y3338D01*
X2908Y3339D01*
Y3342D01*
X2907Y3348D01*
X2903Y3353D01*
X2881Y3376D01*
X2876Y3379D01*
X2871Y3380D01*
X2870Y3380D01*
X2867Y3380D01*
X2862Y3381D01*
X2860Y3381D01*
X2858Y3381D01*
X2858Y3381D01*
Y3384D01*
X2853D01*
X2853Y3384D01*
D02*
G37*
G36*
X3310Y3315D02*
X3304Y3314D01*
X3299Y3311D01*
X3296Y3306D01*
X3295Y3300D01*
Y3296D01*
X3287Y3289D01*
X3284Y3292D01*
X3283Y3293D01*
X3281Y3294D01*
X3281Y3294D01*
X3280Y3294D01*
X3279Y3293D01*
X3277Y3293D01*
X3277Y3292D01*
X3276Y3292D01*
X3276Y3291D01*
X3275Y3289D01*
X3275Y3289D01*
X3275Y3288D01*
X3275Y3287D01*
X3276Y3285D01*
X3276Y3284D01*
X3277Y3284D01*
X3277Y3284D01*
X3276Y3282D01*
X3275Y3280D01*
X3274Y3278D01*
X3272Y3275D01*
X3266Y3268D01*
X3262Y3264D01*
X3262Y3264D01*
X3257Y3259D01*
X3220D01*
X3220Y3259D01*
X3216Y3259D01*
X3214Y3259D01*
X3213Y3259D01*
X3212Y3259D01*
X3211Y3260D01*
X3211Y3260D01*
X3211Y3260D01*
X3211Y3260D01*
X3211Y3260D01*
X3211Y3260D01*
X3209Y3260D01*
X3207Y3261D01*
X3207Y3261D01*
X3207Y3261D01*
X3205Y3260D01*
X3204Y3259D01*
X3204Y3259D01*
X3203Y3259D01*
X3203Y3259D01*
X3195D01*
X3189Y3258D01*
X3184Y3254D01*
X3181Y3249D01*
X3180Y3243D01*
X3181Y3238D01*
X3184Y3233D01*
X3189Y3229D01*
X3195Y3228D01*
X3203D01*
X3203Y3228D01*
X3204Y3228D01*
X3204Y3227D01*
X3205Y3227D01*
X3207Y3226D01*
X3207Y3226D01*
X3207Y3226D01*
X3209Y3226D01*
X3211Y3227D01*
X3211Y3227D01*
X3211Y3227D01*
X3211Y3227D01*
X3211Y3227D01*
X3211Y3227D01*
X3212Y3227D01*
X3213Y3227D01*
X3214Y3228D01*
X3218Y3228D01*
X3220Y3228D01*
X3220Y3228D01*
X3263D01*
X3269Y3229D01*
X3274Y3233D01*
X3284Y3242D01*
X3284Y3242D01*
X3292Y3250D01*
X3295Y3252D01*
X3298Y3254D01*
X3300Y3255D01*
X3302Y3256D01*
X3304Y3257D01*
X3304Y3257D01*
X3304Y3256D01*
X3305Y3256D01*
X3307Y3255D01*
X3308Y3255D01*
X3309Y3255D01*
X3309Y3255D01*
X3311Y3256D01*
X3312Y3256D01*
X3312Y3257D01*
X3313Y3257D01*
X3313Y3259D01*
X3314Y3260D01*
X3314Y3261D01*
X3314Y3261D01*
X3313Y3263D01*
X3312Y3264D01*
X3309Y3267D01*
X3321Y3279D01*
X3324Y3284D01*
X3325Y3290D01*
Y3300D01*
X3324Y3306D01*
X3321Y3311D01*
X3316Y3314D01*
X3310Y3315D01*
D02*
G37*
G36*
X3628Y3345D02*
X3592D01*
X3575Y3328D01*
Y3273D01*
X3592Y3255D01*
X3628D01*
X3645Y3273D01*
Y3328D01*
X3628Y3345D01*
D02*
G37*
G36*
X3527D02*
X3493D01*
X3475Y3328D01*
Y3273D01*
X3493Y3255D01*
X3527D01*
X3545Y3273D01*
Y3328D01*
X3527Y3345D01*
D02*
G37*
G36*
X3428D02*
X3392D01*
X3375Y3328D01*
Y3273D01*
X3392Y3255D01*
X3428D01*
X3445Y3273D01*
Y3328D01*
X3428Y3345D01*
D02*
G37*
%LPD*%
G36*
X3165Y3991D02*
X3164Y3991D01*
X3163Y3991D01*
X3163Y3990D01*
X3162Y3990D01*
X3161Y3989D01*
X3160Y3988D01*
X3157Y3986D01*
X3154Y3984D01*
X3140Y3998D01*
X3142Y3999D01*
X3145Y4003D01*
X3146Y4004D01*
X3146Y4005D01*
X3147Y4006D01*
X3147Y4007D01*
X3147Y4008D01*
X3148Y4008D01*
X3165Y3991D01*
D02*
G37*
G36*
X3106Y3993D02*
X3107Y3991D01*
X3108Y3990D01*
X3109Y3988D01*
X3111Y3987D01*
X3113Y3986D01*
X3116Y3986D01*
X3119Y3985D01*
X3123Y3985D01*
X3126Y3985D01*
Y3965D01*
X3123Y3965D01*
X3119Y3964D01*
X3116Y3964D01*
X3113Y3963D01*
X3111Y3962D01*
X3109Y3961D01*
X3108Y3960D01*
X3107Y3958D01*
X3106Y3957D01*
X3106Y3955D01*
Y3995D01*
X3106Y3993D01*
D02*
G37*
G36*
X2975Y3903D02*
X2973Y3902D01*
X2972Y3901D01*
X2970Y3900D01*
X2969Y3898D01*
X2968Y3896D01*
X2968Y3893D01*
X2967Y3890D01*
X2967Y3887D01*
X2967Y3883D01*
X2947D01*
X2947Y3887D01*
X2946Y3890D01*
X2946Y3893D01*
X2945Y3896D01*
X2944Y3898D01*
X2943Y3900D01*
X2942Y3901D01*
X2940Y3902D01*
X2939Y3903D01*
X2937Y3903D01*
X2977D01*
X2975Y3903D01*
D02*
G37*
G36*
X2913Y3836D02*
X2909Y3836D01*
X2905Y3835D01*
X2902Y3835D01*
X2900Y3834D01*
X2898Y3833D01*
X2896Y3832D01*
X2894Y3831D01*
X2893Y3829D01*
X2893Y3828D01*
X2893Y3826D01*
Y3856D01*
X2893Y3856D01*
X2893Y3856D01*
X2913Y3856D01*
Y3836D01*
D02*
G37*
G36*
X3141Y3810D02*
X3110Y3810D01*
X3112Y3810D01*
X3114Y3811D01*
X3115Y3812D01*
X3116Y3813D01*
X3118Y3815D01*
X3118Y3817D01*
X3119Y3820D01*
X3120Y3823D01*
X3120Y3826D01*
X3120Y3830D01*
X3140D01*
X3141Y3810D01*
D02*
G37*
G36*
X3062Y3716D02*
X3062Y3718D01*
X3061Y3720D01*
X3060Y3721D01*
X3059Y3723D01*
X3057Y3724D01*
X3055Y3725D01*
X3052Y3725D01*
X3049Y3726D01*
X3046Y3726D01*
X3042Y3726D01*
Y3746D01*
X3046Y3746D01*
X3049Y3747D01*
X3052Y3747D01*
X3055Y3748D01*
X3057Y3749D01*
X3059Y3750D01*
X3060Y3751D01*
X3061Y3753D01*
X3062Y3754D01*
X3062Y3756D01*
Y3716D01*
D02*
G37*
G36*
X2893Y3754D02*
X2893Y3753D01*
X2894Y3751D01*
X2896Y3750D01*
X2898Y3749D01*
X2900Y3748D01*
X2902Y3747D01*
X2905Y3747D01*
X2909Y3746D01*
X2913Y3746D01*
Y3726D01*
X2909Y3726D01*
X2905Y3726D01*
X2902Y3725D01*
X2900Y3725D01*
X2898Y3724D01*
X2896Y3723D01*
X2894Y3721D01*
X2893Y3720D01*
X2893Y3718D01*
X2893Y3716D01*
Y3756D01*
X2893Y3754D01*
D02*
G37*
G36*
X3175Y3689D02*
X3175Y3689D01*
X3175Y3688D01*
X3175Y3687D01*
X3175Y3682D01*
X3175Y3680D01*
X3155D01*
X3155Y3689D01*
X3175D01*
X3175Y3689D01*
D02*
G37*
G36*
X3110Y3660D02*
X3108Y3660D01*
X3106Y3659D01*
X3105Y3657D01*
X3104Y3656D01*
X3103Y3653D01*
X3102Y3651D01*
X3102Y3648D01*
X3102Y3644D01*
X3101Y3640D01*
X3081D01*
X3081Y3644D01*
X3081Y3648D01*
X3081Y3651D01*
X3080Y3653D01*
X3079Y3656D01*
X3078Y3657D01*
X3077Y3659D01*
X3075Y3660D01*
X3073Y3660D01*
X3071Y3661D01*
X3111D01*
X3110Y3660D01*
D02*
G37*
G36*
X3101Y3577D02*
X3071D01*
X3073Y3577D01*
X3075Y3578D01*
X3077Y3579D01*
X3078Y3580D01*
X3079Y3582D01*
X3080Y3584D01*
X3081Y3587D01*
X3081Y3590D01*
X3081Y3593D01*
X3081Y3597D01*
X3101D01*
X3101Y3577D01*
D02*
G37*
G36*
X3101Y3513D02*
X3102Y3512D01*
X3102Y3512D01*
X3103Y3511D01*
X3105Y3511D01*
X3106Y3511D01*
X3108Y3510D01*
X3110Y3510D01*
X3115Y3510D01*
Y3490D01*
X3112Y3490D01*
X3106Y3489D01*
X3105Y3489D01*
X3103Y3489D01*
X3102Y3488D01*
X3102Y3488D01*
X3101Y3487D01*
X3101Y3486D01*
Y3514D01*
X3101Y3513D01*
D02*
G37*
G36*
X3062Y3483D02*
X3060Y3484D01*
X3059Y3485D01*
X3057Y3485D01*
X3055Y3485D01*
X3052Y3484D01*
X3049Y3482D01*
X3046Y3479D01*
X3042Y3477D01*
X3034Y3469D01*
X3024Y3488D01*
X3028Y3492D01*
X3034Y3499D01*
X3036Y3502D01*
X3038Y3505D01*
X3039Y3508D01*
X3040Y3510D01*
X3040Y3512D01*
X3040Y3515D01*
X3039Y3516D01*
X3062Y3483D01*
D02*
G37*
G36*
X3137Y3458D02*
X3132Y3453D01*
X3126Y3445D01*
X3123Y3442D01*
X3122Y3439D01*
X3120Y3436D01*
X3120Y3434D01*
X3120Y3432D01*
X3121Y3431D01*
X3122Y3429D01*
X3087Y3449D01*
X3090Y3449D01*
X3093Y3450D01*
X3096Y3451D01*
X3099Y3452D01*
X3102Y3454D01*
X3106Y3457D01*
X3109Y3459D01*
X3117Y3466D01*
X3121Y3470D01*
X3137Y3458D01*
D02*
G37*
G36*
X2853Y3449D02*
X2853Y3448D01*
X2854Y3448D01*
X2856Y3447D01*
X2858Y3447D01*
X2860Y3446D01*
X2865Y3446D01*
X2873Y3446D01*
Y3426D01*
X2869Y3426D01*
X2858Y3425D01*
X2856Y3425D01*
X2854Y3424D01*
X2853Y3424D01*
X2853Y3423D01*
X2853Y3422D01*
Y3450D01*
X2853Y3449D01*
D02*
G37*
G36*
X3173Y3422D02*
X3170Y3422D01*
X3168Y3421D01*
X3165Y3420D01*
X3162Y3418D01*
X3159Y3416D01*
X3155Y3414D01*
X3152Y3411D01*
X3144Y3405D01*
X3140Y3401D01*
X3123Y3412D01*
X3128Y3417D01*
X3134Y3425D01*
X3137Y3428D01*
X3138Y3431D01*
X3140Y3434D01*
X3140Y3436D01*
X3140Y3438D01*
X3139Y3440D01*
X3137Y3441D01*
X3173Y3422D01*
D02*
G37*
G36*
X3053Y3430D02*
X3073Y3441D01*
X3071Y3440D01*
X3070Y3438D01*
X3070Y3436D01*
X3070Y3434D01*
X3072Y3431D01*
X3073Y3428D01*
X3076Y3425D01*
X3079Y3421D01*
X3087Y3412D01*
X3070Y3401D01*
X3066Y3405D01*
X3055Y3414D01*
X3051Y3416D01*
X3048Y3418D01*
X3045Y3420D01*
X3045Y3420D01*
X3043Y3418D01*
X3039Y3415D01*
X3031Y3408D01*
X3023Y3428D01*
X3026Y3431D01*
X3032Y3438D01*
X3034Y3441D01*
X3035Y3443D01*
X3036Y3444D01*
X3037Y3446D01*
X3037Y3448D01*
X3037Y3449D01*
X3053Y3430D01*
D02*
G37*
G36*
X2960Y3395D02*
X2956Y3391D01*
X2950Y3384D01*
X2948Y3380D01*
X2946Y3378D01*
X2945Y3375D01*
X2944Y3372D01*
X2944Y3370D01*
X2944Y3368D01*
X2946Y3367D01*
X2919Y3397D01*
X2921Y3396D01*
X2923Y3395D01*
X2925Y3395D01*
X2927Y3396D01*
X2930Y3397D01*
X2933Y3398D01*
X2936Y3401D01*
X2940Y3404D01*
X2948Y3411D01*
X2960Y3395D01*
D02*
G37*
G36*
X3173Y3378D02*
X3173Y3377D01*
X3174Y3376D01*
X3176Y3376D01*
X3178Y3375D01*
X3180Y3375D01*
X3185Y3375D01*
X3193Y3375D01*
Y3355D01*
X3189Y3355D01*
X3178Y3354D01*
X3176Y3353D01*
X3174Y3353D01*
X3173Y3352D01*
X3173Y3352D01*
X3173Y3351D01*
Y3378D01*
X3173Y3378D01*
D02*
G37*
G36*
X2977Y3334D02*
X2978Y3328D01*
X2978Y3325D01*
X2979Y3323D01*
X2979Y3321D01*
X2980Y3320D01*
X2981Y3319D01*
X2982Y3318D01*
X2983Y3318D01*
X2952D01*
X2953Y3318D01*
X2954Y3319D01*
X2955Y3320D01*
X2955Y3321D01*
X2956Y3323D01*
X2957Y3325D01*
X2957Y3328D01*
X2957Y3331D01*
X2957Y3338D01*
X2977D01*
X2977Y3334D01*
D02*
G37*
G36*
X2842Y3617D02*
X2841Y3618D01*
X2839Y3619D01*
X2837Y3619D01*
X2834Y3618D01*
X2832Y3617D01*
X2829Y3615D01*
X2825Y3613D01*
X2822Y3610D01*
X2814Y3603D01*
X2800Y3617D01*
X2804Y3621D01*
X2810Y3628D01*
X2812Y3632D01*
X2814Y3635D01*
X2815Y3637D01*
X2816Y3640D01*
X2816Y3642D01*
X2815Y3644D01*
X2814Y3645D01*
X2842Y3617D01*
D02*
G37*
G36*
X2731Y3574D02*
X2731Y3574D01*
X2732Y3573D01*
X2733Y3573D01*
X2735Y3573D01*
X2739Y3573D01*
X2742Y3573D01*
X2746Y3553D01*
X2745Y3553D01*
X2741Y3553D01*
X2740Y3552D01*
X2738Y3552D01*
X2737Y3552D01*
X2736Y3551D01*
X2735Y3551D01*
X2735Y3551D01*
X2734Y3550D01*
X2730Y3574D01*
X2731Y3574D01*
D02*
G37*
G36*
X2853Y3378D02*
X2853Y3377D01*
X2854Y3377D01*
X2855Y3376D01*
X2857Y3376D01*
X2859Y3376D01*
X2861Y3375D01*
X2867Y3375D01*
X2870Y3375D01*
Y3355D01*
X2867Y3355D01*
X2859Y3354D01*
X2857Y3354D01*
X2855Y3354D01*
X2854Y3353D01*
X2853Y3353D01*
X2853Y3352D01*
X2853Y3351D01*
Y3379D01*
X2853Y3378D01*
D02*
G37*
G36*
X2903Y3334D02*
X2903Y3328D01*
X2903Y3325D01*
X2904Y3323D01*
X2905Y3321D01*
X2905Y3320D01*
X2906Y3319D01*
X2907Y3318D01*
X2908Y3318D01*
X2877D01*
X2878Y3318D01*
X2879Y3319D01*
X2880Y3320D01*
X2881Y3321D01*
X2881Y3323D01*
X2882Y3325D01*
X2882Y3328D01*
X2882Y3331D01*
X2883Y3338D01*
X2903D01*
X2903Y3334D01*
D02*
G37*
G36*
X2891Y3304D02*
X2900D01*
X2900Y3303D01*
X2898Y3302D01*
X2898Y3301D01*
X2898Y3301D01*
X2898Y3301D01*
X2898Y3301D01*
X2893D01*
X2892Y3300D01*
X2891Y3300D01*
X2890Y3300D01*
X2890Y3300D01*
X2889Y3299D01*
X2888Y3299D01*
X2887Y3298D01*
X2887Y3298D01*
X2886Y3297D01*
X2879Y3304D01*
X2880Y3305D01*
X2880Y3305D01*
X2881Y3306D01*
X2881Y3307D01*
X2881Y3308D01*
X2882Y3309D01*
X2882Y3309D01*
X2882Y3310D01*
X2883Y3311D01*
X2883Y3312D01*
X2891Y3304D01*
D02*
G37*
G36*
X3308Y3260D02*
X3307Y3261D01*
X3305Y3262D01*
X3303Y3262D01*
X3301Y3261D01*
X3298Y3260D01*
X3295Y3259D01*
X3292Y3256D01*
X3288Y3254D01*
X3281Y3246D01*
X3266Y3261D01*
X3270Y3265D01*
X3276Y3272D01*
X3279Y3275D01*
X3280Y3278D01*
X3281Y3281D01*
X3282Y3283D01*
X3282Y3285D01*
X3281Y3287D01*
X3280Y3288D01*
X3308Y3260D01*
D02*
G37*
G36*
X3208Y3255D02*
X3209Y3255D01*
X3210Y3254D01*
X3211Y3254D01*
X3212Y3254D01*
X3213Y3254D01*
X3216Y3253D01*
X3220Y3253D01*
Y3233D01*
X3218Y3233D01*
X3213Y3233D01*
X3212Y3233D01*
X3211Y3233D01*
X3210Y3232D01*
X3209Y3232D01*
X3208Y3232D01*
X3207Y3231D01*
Y3256D01*
X3208Y3255D01*
D02*
G37*
D21*
X3155Y3365D02*
D03*
Y3435D02*
D03*
X3055Y3365D02*
D03*
Y3435D02*
D03*
X3105Y3365D02*
D03*
Y3435D02*
D03*
X2835Y3436D02*
D03*
Y3365D02*
D03*
D44*
X3586Y3479D02*
X3725D01*
X3495Y3570D02*
X3586Y3479D01*
X3080Y3757D02*
X3130Y3807D01*
X3080Y3510D02*
X3090Y3520D01*
X3075Y3535D02*
X3090Y3520D01*
X4107Y3623D02*
X4160Y3570D01*
X3366Y3623D02*
X4107D01*
X3365Y3655D02*
X4040D01*
X4065Y3680D01*
X3510Y3830D02*
X4101D01*
X3410Y3730D02*
X3510Y3830D01*
X3504Y3684D02*
X3613Y3793D01*
X3973D01*
X3195Y3243D02*
X3263D01*
X3310Y3290D01*
Y3300D01*
X3096Y3975D02*
X3131D01*
X3075Y3953D02*
X3096Y3975D01*
X3075Y3950D02*
Y3953D01*
X3131Y3975D02*
X3165Y4008D01*
X2720Y3560D02*
X2723Y3563D01*
X2760D01*
X2843Y3646D01*
X2853D01*
X2929Y3436D02*
X2945Y3452D01*
X2835Y3436D02*
X2929D01*
X3109Y3435D02*
Y3444D01*
X2921Y3846D02*
X2957Y3882D01*
X2883Y3846D02*
X2921D01*
X2957Y3882D02*
Y3950D01*
X4101Y3830D02*
X4141Y3790D01*
X3151Y3426D02*
Y3435D01*
X3059Y3426D02*
Y3435D01*
X3105Y3380D02*
X3151Y3426D01*
X3105Y3365D02*
Y3380D01*
X3059Y3426D02*
X3105Y3380D01*
X3130Y3807D02*
Y3870D01*
X3100Y3736D02*
X3101Y3735D01*
X3080Y3757D02*
X3100Y3736D01*
X3109Y3444D02*
X3165Y3500D01*
X3494Y3425D02*
X3985D01*
X3295Y3625D02*
X3494Y3425D01*
X3165Y3500D02*
Y3700D01*
X3090Y3500D02*
X3115D01*
X3080Y3510D02*
X3090Y3500D01*
X3091Y3551D02*
Y3726D01*
X2853Y3736D02*
X3100D01*
X3091Y3726D02*
X3101Y3735D01*
X3075Y3535D02*
X3091Y3551D01*
X3070Y3530D02*
X3075Y3535D01*
X3105Y3435D02*
X3109D01*
X2967Y3358D02*
X3045Y3436D01*
X2967Y3301D02*
Y3358D01*
X3070Y3519D02*
Y3530D01*
X2930Y3379D02*
X3070Y3519D01*
X2893Y3311D02*
Y3342D01*
X2870Y3365D02*
X2893Y3342D01*
X2853Y3826D02*
X2863D01*
X2883Y3846D01*
X2835Y3365D02*
X2870D01*
X3320Y3365D02*
X3350Y3395D01*
X3155Y3365D02*
X3320D01*
D45*
X3151Y3435D02*
X3155D01*
X3055D02*
X3059D01*
X3045D02*
X3055D01*
X3045Y3436D02*
X3045Y3435D01*
X2893Y3301D02*
Y3311D01*
X2882Y3301D02*
X2893Y3311D01*
D48*
X3310Y3300D02*
D03*
X3410D02*
D03*
X3510D02*
D03*
X3610D02*
D03*
X4110Y3985D02*
D03*
X4010D02*
D03*
D49*
X4365Y3826D02*
D03*
Y3726D02*
D03*
Y3626D02*
D03*
Y3526D02*
D03*
Y3426D02*
D03*
D50*
X2760Y3473D02*
D03*
Y3647D02*
D03*
D51*
X3495Y3570D02*
D03*
X2990Y3575D02*
D03*
X3725Y3479D02*
D03*
X3092Y3245D02*
D03*
X2850Y3933D02*
D03*
X3165Y4008D02*
D03*
X3705Y3318D02*
D03*
X4095Y3554D02*
D03*
X4230Y3503D02*
D03*
X4000Y3493D02*
D03*
X4475Y3903D02*
D03*
Y4018D02*
D03*
X4290D02*
D03*
X3645Y4005D02*
D03*
X3405D02*
D03*
X2610Y3854D02*
D03*
Y3993D02*
D03*
X4450Y3345D02*
D03*
X4350Y3250D02*
D03*
X3195Y3243D02*
D03*
X2950D02*
D03*
X2645Y3305D02*
D03*
X2720Y3560D02*
D03*
X2645Y3473D02*
D03*
Y3560D02*
D03*
Y3645D02*
D03*
D52*
X3366Y3623D02*
D03*
X3365Y3655D02*
D03*
X3410Y3730D02*
D03*
X3504Y3684D02*
D03*
X3973Y3793D02*
D03*
X3130Y3870D02*
D03*
X4160Y3570D02*
D03*
X4141Y3790D02*
D03*
X4065Y3680D02*
D03*
X3985Y3425D02*
D03*
X3115Y3500D02*
D03*
X3295Y3625D02*
D03*
X3350Y3395D02*
D03*
D53*
X2945Y3450D02*
D03*
X3165Y3700D02*
D03*
D54*
X2893Y3301D02*
D03*
X2967D02*
D03*
X2930Y3379D02*
D03*
D55*
X3070Y3530D02*
D03*
X2952D02*
D03*
X2957Y3950D02*
D03*
X3075D02*
D03*
D56*
X2853Y3646D02*
D03*
Y3736D02*
D03*
Y3826D02*
D03*
D57*
X3101Y3735D02*
D03*
M02*
