G04*
G04 #@! TF.GenerationSoftware,Altium Limited,Altium Designer,19.0.15 (446)*
G04*
G04 Layer_Color=8388736*
%FSLAX23Y23*%
%MOIN*%
G70*
G01*
G75*
%ADD28R,0.059X0.045*%
%ADD29R,0.036X0.043*%
%ADD30R,0.053X0.032*%
%ADD31R,0.045X0.059*%
%ADD32R,0.059X0.071*%
%ADD33R,0.043X0.036*%
%ADD34R,0.067X0.185*%
%ADD35R,0.087X0.071*%
G04:AMPARAMS|DCode=36|XSize=19mil|YSize=69mil|CornerRadius=7mil|HoleSize=0mil|Usage=FLASHONLY|Rotation=180.000|XOffset=0mil|YOffset=0mil|HoleType=Round|Shape=RoundedRectangle|*
%AMROUNDEDRECTD36*
21,1,0.019,0.056,0,0,180.0*
21,1,0.006,0.069,0,0,180.0*
1,1,0.014,-0.003,0.028*
1,1,0.014,0.003,0.028*
1,1,0.014,0.003,-0.028*
1,1,0.014,-0.003,-0.028*
%
%ADD36ROUNDEDRECTD36*%
G04:AMPARAMS|DCode=37|XSize=19mil|YSize=69mil|CornerRadius=7mil|HoleSize=0mil|Usage=FLASHONLY|Rotation=270.000|XOffset=0mil|YOffset=0mil|HoleType=Round|Shape=RoundedRectangle|*
%AMROUNDEDRECTD37*
21,1,0.019,0.056,0,0,270.0*
21,1,0.006,0.069,0,0,270.0*
1,1,0.014,-0.028,-0.003*
1,1,0.014,-0.028,0.003*
1,1,0.014,0.028,0.003*
1,1,0.014,0.028,-0.003*
%
%ADD37ROUNDEDRECTD37*%
%ADD38R,0.106X0.087*%
%ADD39R,0.097X0.028*%
G04:AMPARAMS|DCode=40|XSize=88mil|YSize=68mil|CornerRadius=0mil|HoleSize=0mil|Usage=FLASHONLY|Rotation=270.000|XOffset=0mil|YOffset=0mil|HoleType=Round|Shape=Octagon|*
%AMOCTAGOND40*
4,1,8,-0.017,-0.044,0.017,-0.044,0.034,-0.027,0.034,0.027,0.017,0.044,-0.017,0.044,-0.034,0.027,-0.034,-0.027,-0.017,-0.044,0.0*
%
%ADD40OCTAGOND40*%

G04:AMPARAMS|DCode=41|XSize=88mil|YSize=68mil|CornerRadius=0mil|HoleSize=0mil|Usage=FLASHONLY|Rotation=180.000|XOffset=0mil|YOffset=0mil|HoleType=Round|Shape=Octagon|*
%AMOCTAGOND41*
4,1,8,-0.044,0.017,-0.044,-0.017,-0.027,-0.034,0.027,-0.034,0.044,-0.017,0.044,0.017,0.027,0.034,-0.027,0.034,-0.044,0.017,0.0*
%
%ADD41OCTAGOND41*%

%ADD42C,0.045*%
%ADD43C,0.043*%
D28*
X3700Y3741D02*
D03*
X3700Y3819D02*
D03*
X3094Y3351D02*
D03*
X3094Y3429D02*
D03*
X3170Y3351D02*
D03*
X3170Y3430D02*
D03*
X3705Y3524D02*
D03*
X3705Y3603D02*
D03*
X4210Y4014D02*
D03*
X4210Y3936D02*
D03*
X3525Y3944D02*
D03*
X3525Y3865D02*
D03*
X3605Y3904D02*
D03*
X3605Y3825D02*
D03*
X3287Y3942D02*
D03*
X3287Y3864D02*
D03*
X3212Y3942D02*
D03*
X3212Y3864D02*
D03*
D29*
X3855Y3405D02*
D03*
X3926D02*
D03*
X3745Y3435D02*
D03*
X3815D02*
D03*
X3160Y3550D02*
D03*
X3090D02*
D03*
X3160Y3600D02*
D03*
X3090D02*
D03*
X3030Y3345D02*
D03*
X2960D02*
D03*
X3550Y3400D02*
D03*
X3620D02*
D03*
X4280Y3789D02*
D03*
X4210D02*
D03*
X4180Y3680D02*
D03*
X4110D02*
D03*
X4280Y3567D02*
D03*
X4210D02*
D03*
X4406Y3975D02*
D03*
X4335D02*
D03*
X2975Y3955D02*
D03*
X3045D02*
D03*
X3370Y3881D02*
D03*
X3440D02*
D03*
D30*
X3039Y3575D02*
D03*
X2951Y3538D02*
D03*
Y3612D02*
D03*
D31*
X2981Y3775D02*
D03*
X3060D02*
D03*
D32*
X4188Y3392D02*
D03*
X4262D02*
D03*
X3805Y3320D02*
D03*
X3880D02*
D03*
D33*
X3985Y3310D02*
D03*
Y3381D02*
D03*
X4095Y3311D02*
D03*
Y3382D02*
D03*
X4005Y3820D02*
D03*
Y3890D02*
D03*
Y3696D02*
D03*
Y3767D02*
D03*
X3175Y3811D02*
D03*
Y3740D02*
D03*
D34*
X3840Y3902D02*
D03*
Y3568D02*
D03*
D35*
X2750Y3865D02*
D03*
Y3975D02*
D03*
D36*
X3508Y3450D02*
D03*
X3489D02*
D03*
X3469D02*
D03*
X3449D02*
D03*
X3430D02*
D03*
X3410D02*
D03*
X3390D02*
D03*
X3370D02*
D03*
X3351D02*
D03*
X3331D02*
D03*
X3311D02*
D03*
X3292D02*
D03*
Y3780D02*
D03*
X3311D02*
D03*
X3331D02*
D03*
X3351D02*
D03*
X3370D02*
D03*
X3390D02*
D03*
X3410D02*
D03*
X3430D02*
D03*
X3449D02*
D03*
X3469D02*
D03*
X3489D02*
D03*
X3508D02*
D03*
D37*
X3235Y3507D02*
D03*
Y3526D02*
D03*
Y3546D02*
D03*
Y3566D02*
D03*
Y3585D02*
D03*
Y3605D02*
D03*
Y3625D02*
D03*
Y3645D02*
D03*
Y3664D02*
D03*
Y3684D02*
D03*
Y3704D02*
D03*
Y3723D02*
D03*
X3565D02*
D03*
Y3704D02*
D03*
Y3684D02*
D03*
Y3664D02*
D03*
Y3645D02*
D03*
Y3625D02*
D03*
Y3605D02*
D03*
Y3585D02*
D03*
Y3566D02*
D03*
Y3546D02*
D03*
Y3526D02*
D03*
Y3507D02*
D03*
D38*
X2646Y3385D02*
D03*
Y3735D02*
D03*
X2860Y3385D02*
D03*
Y3735D02*
D03*
D39*
X2865Y3497D02*
D03*
Y3529D02*
D03*
Y3560D02*
D03*
Y3591D02*
D03*
Y3623D02*
D03*
D40*
X3310Y3300D02*
D03*
X3410D02*
D03*
X3510D02*
D03*
X3610D02*
D03*
X4110Y3985D02*
D03*
X4010D02*
D03*
D41*
X4365Y3826D02*
D03*
Y3726D02*
D03*
Y3626D02*
D03*
Y3526D02*
D03*
Y3426D02*
D03*
D42*
X2760Y3473D02*
D03*
Y3647D02*
D03*
D43*
X4475Y4018D02*
D03*
X2610Y3993D02*
D03*
X4350Y3250D02*
D03*
X2645Y3305D02*
D03*
M02*
