G04*
G04 #@! TF.GenerationSoftware,Altium Limited,Altium Designer,19.0.15 (446)*
G04*
G04 Layer_Color=128*
%FSLAX23Y23*%
%MOIN*%
G70*
G01*
G75*
%ADD64C,0.002*%
D64*
X3290Y3300D02*
X3330D01*
X3310Y3280D02*
Y3320D01*
X3390Y3300D02*
X3430D01*
X3410Y3280D02*
Y3320D01*
X3490Y3300D02*
X3530D01*
X3510Y3280D02*
Y3320D01*
X3590Y3300D02*
X3630D01*
X3610Y3280D02*
Y3320D01*
X4345Y3826D02*
X4385D01*
X4365Y3806D02*
Y3846D01*
X4345Y3726D02*
X4385D01*
X4365Y3706D02*
Y3746D01*
X4345Y3626D02*
X4385D01*
X4365Y3606D02*
Y3646D01*
X4345Y3526D02*
X4385D01*
X4365Y3506D02*
Y3546D01*
X4345Y3426D02*
X4385D01*
X4365Y3406D02*
Y3446D01*
X4090Y3985D02*
X4130D01*
X4110Y3965D02*
Y4005D01*
X3990Y3985D02*
X4030D01*
X4010Y3965D02*
Y4005D01*
X2741Y3473D02*
X2779D01*
X2760Y3455D02*
Y3492D01*
X2741Y3647D02*
X2779D01*
X2760Y3628D02*
Y3665D01*
X3487Y3570D02*
X3503D01*
X3495Y3562D02*
Y3579D01*
X3361Y3623D02*
X3371D01*
X3366Y3618D02*
Y3628D01*
X3360Y3655D02*
X3370D01*
X3365Y3650D02*
Y3660D01*
X3405Y3730D02*
X3415D01*
X3410Y3725D02*
Y3735D01*
X3499Y3684D02*
X3509D01*
X3504Y3679D02*
Y3689D01*
X2981Y3575D02*
X2999D01*
X2990Y3566D02*
Y3583D01*
X3717Y3479D02*
X3734D01*
X3725Y3471D02*
Y3488D01*
X3083Y3245D02*
X3100D01*
X3092Y3237D02*
Y3253D01*
X2842Y3933D02*
X2859D01*
X2850Y3925D02*
Y3942D01*
X3157Y4008D02*
X3174D01*
X3165Y4000D02*
Y4017D01*
X3697Y3318D02*
X3714D01*
X3705Y3310D02*
Y3327D01*
X4087Y3554D02*
X4103D01*
X4095Y3545D02*
Y3562D01*
X4221Y3503D02*
X4239D01*
X4230Y3495D02*
Y3512D01*
X3991Y3493D02*
X4009D01*
X4000Y3485D02*
Y3502D01*
X4466Y3903D02*
X4484D01*
X4475Y3895D02*
Y3912D01*
X4466Y4018D02*
X4484D01*
X4475Y4010D02*
Y4027D01*
X4281Y4018D02*
X4299D01*
X4290Y4010D02*
Y4027D01*
X3636Y4005D02*
X3654D01*
X3645Y3997D02*
Y4014D01*
X3397Y4005D02*
X3414D01*
X3405Y3997D02*
Y4014D01*
X2602Y3854D02*
X2618D01*
X2610Y3846D02*
Y3863D01*
X2602Y3993D02*
X2618D01*
X2610Y3985D02*
Y4002D01*
X4442Y3345D02*
X4458D01*
X4450Y3336D02*
Y3353D01*
X4341Y3250D02*
X4359D01*
X4350Y3241D02*
Y3259D01*
X3187Y3243D02*
X3204D01*
X3195Y3235D02*
Y3252D01*
X2941Y3243D02*
X2958D01*
X2950Y3235D02*
Y3252D01*
X2636Y3305D02*
X2654D01*
X2645Y3296D02*
Y3313D01*
X2711Y3560D02*
X2728D01*
X2720Y3552D02*
Y3569D01*
X2938Y3450D02*
X2953D01*
X2945Y3443D02*
Y3458D01*
X2636Y3473D02*
X2654D01*
X2645Y3465D02*
Y3482D01*
X2636Y3560D02*
X2654D01*
X2645Y3552D02*
Y3569D01*
X2636Y3645D02*
X2654D01*
X2645Y3636D02*
Y3653D01*
X3968Y3793D02*
X3978D01*
X3973Y3788D02*
Y3798D01*
X3125Y3870D02*
X3135D01*
X3130Y3865D02*
Y3875D01*
X4155Y3570D02*
X4165D01*
X4160Y3565D02*
Y3575D01*
X4136Y3790D02*
X4146D01*
X4141Y3785D02*
Y3795D01*
X4060Y3680D02*
X4070D01*
X4065Y3675D02*
Y3685D01*
X3980Y3425D02*
X3990D01*
X3985Y3420D02*
Y3430D01*
X3110Y3500D02*
X3120D01*
X3115Y3495D02*
Y3505D01*
X3160Y3700D02*
X3170D01*
X3165Y3695D02*
Y3705D01*
X3290Y3625D02*
X3300D01*
X3295Y3620D02*
Y3630D01*
X3345Y3395D02*
X3355D01*
X3350Y3390D02*
Y3400D01*
M02*
