G04*
G04 #@! TF.GenerationSoftware,Altium Limited,Altium Designer,19.0.15 (446)*
G04*
G04 Layer_Color=32896*
%FSLAX23Y23*%
%MOIN*%
G70*
G01*
G75*
%ADD10C,0.010*%
%ADD11C,0.008*%
%ADD13C,0.008*%
%ADD14C,0.005*%
%ADD62R,0.008X0.087*%
%ADD63R,0.026X0.106*%
D10*
X3010Y3301D02*
G03*
X3010Y3301I-5J0D01*
G01*
D11*
X3171Y3413D02*
X3171Y3386D01*
X3139Y3414D02*
X3139Y3387D01*
X3071Y3413D02*
X3071Y3386D01*
X3039Y3414D02*
X3039Y3387D01*
X3121Y3413D02*
X3121Y3386D01*
X3089Y3414D02*
X3089Y3387D01*
X2871Y3368D02*
X2899D01*
X2871Y3328D02*
Y3368D01*
X2961D02*
X2989D01*
Y3328D02*
Y3368D01*
X2819Y3414D02*
X2819Y3387D01*
X2851Y3414D02*
X2851Y3387D01*
D13*
X2914Y3586D02*
X3128D01*
X2912Y3474D02*
Y3586D01*
X2914Y3474D02*
X3128D01*
Y3586D01*
X2899Y3894D02*
X3113D01*
X3115D02*
Y4006D01*
X2899D02*
X3113D01*
X2899Y3894D02*
Y4006D01*
X2909Y3612D02*
X3045D01*
X2909Y3858D02*
X3045D01*
Y3612D02*
Y3858D01*
X2909Y3612D02*
Y3858D01*
D14*
X2866Y3900D02*
Y3879D01*
X2864Y3875D01*
X2861Y3872D01*
X2857Y3870D01*
X2854D01*
X2850Y3872D01*
X2847Y3875D01*
X2846Y3879D01*
Y3900D01*
X2864D02*
Y3879D01*
X2863Y3875D01*
X2860Y3872D01*
X2857Y3870D01*
X2870Y3900D02*
X2860D01*
X2850D02*
X2841D01*
X2836Y3895D02*
X2835Y3893D01*
X2836Y3892D01*
X2838Y3893D01*
Y3895D01*
X2836Y3897D01*
X2835Y3899D01*
X2831Y3900D01*
X2825D01*
X2821Y3899D01*
X2819Y3897D01*
X2818Y3895D01*
Y3892D01*
X2819Y3889D01*
X2824Y3886D01*
X2831Y3883D01*
X2834Y3882D01*
X2836Y3879D01*
X2838Y3875D01*
Y3870D01*
X2825Y3900D02*
X2822Y3899D01*
X2821Y3897D01*
X2819Y3895D01*
Y3892D01*
X2821Y3889D01*
X2825Y3886D01*
X2831Y3883D01*
X2838Y3873D02*
X2836Y3875D01*
X2834D01*
X2826Y3872D01*
X2822D01*
X2819Y3873D01*
X2818Y3875D01*
Y3877D01*
X2834Y3875D02*
X2826Y3870D01*
X2821D01*
X2819Y3872D01*
X2818Y3875D01*
X3170Y3299D02*
X3140D01*
X3170Y3301D02*
X3140D01*
X3170Y3295D02*
Y3312D01*
X3169Y3316D01*
X3167Y3318D01*
X3164Y3319D01*
X3161D01*
X3159Y3318D01*
X3157Y3316D01*
X3156Y3312D01*
Y3301D01*
X3170Y3312D02*
X3169Y3315D01*
X3167Y3316D01*
X3164Y3318D01*
X3161D01*
X3159Y3316D01*
X3157Y3315D01*
X3156Y3312D01*
X3140Y3295D02*
Y3305D01*
X3156Y3308D02*
X3154Y3311D01*
X3153Y3312D01*
X3143Y3316D01*
X3141Y3318D01*
Y3319D01*
X3143Y3321D01*
X3154Y3311D02*
X3151Y3312D01*
X3141Y3315D01*
X3140Y3316D01*
Y3319D01*
X3143Y3321D01*
X3144D01*
X3170Y3325D02*
X3161D01*
X3164D02*
X3167Y3326D01*
X3170Y3329D01*
Y3332D01*
X3166Y3339D01*
Y3342D01*
X3167Y3343D01*
X3170Y3345D01*
X3167Y3326D02*
X3169Y3329D01*
Y3332D01*
X3166Y3339D01*
X3170Y3345D02*
X3166D01*
X3161Y3343D01*
X3154Y3337D01*
X3151Y3336D01*
X3147Y3335D01*
X3140D01*
X3161Y3343D02*
X3154Y3336D01*
X3151Y3335D01*
X3147Y3333D01*
X3140D01*
X3070Y3294D02*
X3040D01*
X3070Y3296D02*
X3040D01*
X3070Y3290D02*
Y3307D01*
X3069Y3311D01*
X3067Y3313D01*
X3064Y3314D01*
X3061D01*
X3059Y3313D01*
X3057Y3311D01*
X3056Y3307D01*
Y3296D01*
X3070Y3307D02*
X3069Y3310D01*
X3067Y3311D01*
X3064Y3313D01*
X3061D01*
X3059Y3311D01*
X3057Y3310D01*
X3056Y3307D01*
X3040Y3290D02*
Y3300D01*
X3056Y3303D02*
X3054Y3306D01*
X3053Y3307D01*
X3043Y3311D01*
X3041Y3313D01*
Y3314D01*
X3043Y3316D01*
X3054Y3306D02*
X3051Y3307D01*
X3041Y3310D01*
X3040Y3311D01*
Y3314D01*
X3043Y3316D01*
X3044D01*
X3066Y3337D02*
X3064Y3335D01*
X3063Y3337D01*
X3064Y3338D01*
X3066D01*
X3069Y3337D01*
X3070Y3334D01*
Y3330D01*
X3069Y3325D01*
X3066Y3322D01*
X3063Y3321D01*
X3057Y3320D01*
X3049D01*
X3044Y3321D01*
X3041Y3324D01*
X3040Y3328D01*
Y3331D01*
X3041Y3335D01*
X3044Y3338D01*
X3049Y3340D01*
X3050D01*
X3054Y3338D01*
X3057Y3335D01*
X3059Y3331D01*
Y3330D01*
X3057Y3325D01*
X3054Y3322D01*
X3050Y3321D01*
X3070Y3330D02*
X3069Y3327D01*
X3066Y3324D01*
X3063Y3322D01*
X3057Y3321D01*
X3049D01*
X3044Y3322D01*
X3041Y3325D01*
X3040Y3328D01*
Y3331D02*
X3041Y3334D01*
X3044Y3337D01*
X3049Y3338D01*
X3050D01*
X3054Y3337D01*
X3057Y3334D01*
X3059Y3331D01*
X3121Y3294D02*
X3091D01*
X3121Y3296D02*
X3091D01*
X3121Y3290D02*
Y3307D01*
X3120Y3311D01*
X3119Y3313D01*
X3116Y3314D01*
X3113D01*
X3110Y3313D01*
X3109Y3311D01*
X3107Y3307D01*
Y3296D01*
X3121Y3307D02*
X3120Y3310D01*
X3119Y3311D01*
X3116Y3313D01*
X3113D01*
X3110Y3311D01*
X3109Y3310D01*
X3107Y3307D01*
X3091Y3290D02*
Y3300D01*
X3107Y3303D02*
X3106Y3306D01*
X3104Y3307D01*
X3094Y3311D01*
X3093Y3313D01*
Y3314D01*
X3094Y3316D01*
X3106Y3306D02*
X3103Y3307D01*
X3093Y3310D01*
X3091Y3311D01*
Y3314D01*
X3094Y3316D01*
X3096D01*
X3121Y3322D02*
X3107Y3320D01*
X3110Y3322D01*
X3111Y3327D01*
Y3331D01*
X3110Y3335D01*
X3107Y3338D01*
X3103Y3340D01*
X3100D01*
X3096Y3338D01*
X3093Y3335D01*
X3091Y3331D01*
Y3327D01*
X3093Y3322D01*
X3094Y3321D01*
X3097Y3320D01*
X3099D01*
X3100Y3321D01*
X3099Y3322D01*
X3097Y3321D01*
X3111Y3331D02*
X3110Y3334D01*
X3107Y3337D01*
X3103Y3338D01*
X3100D01*
X3096Y3337D01*
X3093Y3334D01*
X3091Y3331D01*
X3121Y3322D02*
Y3337D01*
X3120Y3322D02*
Y3330D01*
X3121Y3337D01*
X2794Y3290D02*
Y3320D01*
X2796Y3290D02*
Y3320D01*
X2790Y3290D02*
X2807D01*
X2811Y3291D01*
X2813Y3293D01*
X2814Y3296D01*
Y3299D01*
X2813Y3301D01*
X2811Y3303D01*
X2807Y3304D01*
X2796D01*
X2807Y3290D02*
X2810Y3291D01*
X2811Y3293D01*
X2813Y3296D01*
Y3299D01*
X2811Y3301D01*
X2810Y3303D01*
X2807Y3304D01*
X2790Y3320D02*
X2800D01*
X2803Y3304D02*
X2806Y3306D01*
X2807Y3307D01*
X2811Y3317D01*
X2813Y3319D01*
X2814D01*
X2816Y3317D01*
X2806Y3306D02*
X2807Y3309D01*
X2810Y3319D01*
X2811Y3320D01*
X2814D01*
X2816Y3317D01*
Y3316D01*
X2834Y3293D02*
Y3320D01*
X2842Y3311D02*
X2820D01*
X2835Y3290D01*
Y3320D01*
X2830D02*
X2840D01*
X2915Y3440D02*
X2919Y3439D01*
X2922Y3436D01*
X2924Y3433D01*
X2925Y3427D01*
Y3423D01*
X2924Y3417D01*
X2922Y3414D01*
X2919Y3411D01*
X2915Y3410D01*
X2912D01*
X2908Y3411D01*
X2905Y3414D01*
X2904Y3417D01*
X2902Y3423D01*
Y3427D01*
X2904Y3433D01*
X2905Y3436D01*
X2908Y3439D01*
X2912Y3440D01*
X2915D01*
X2918Y3439D01*
X2921Y3436D01*
X2922Y3433D01*
X2924Y3427D01*
Y3423D01*
X2922Y3417D01*
X2921Y3414D01*
X2918Y3411D01*
X2915Y3410D01*
X2912D02*
X2909Y3411D01*
X2906Y3414D01*
X2905Y3417D01*
X2904Y3423D01*
Y3427D01*
X2905Y3433D01*
X2906Y3436D01*
X2909Y3439D01*
X2912Y3440D01*
X2919Y3413D02*
Y3414D01*
X2918Y3417D01*
X2915Y3419D01*
X2914D01*
X2911Y3417D01*
X2909Y3414D01*
X2908Y3404D01*
X2906Y3403D01*
X2904D01*
X2902Y3406D01*
Y3407D01*
X2909Y3414D02*
X2908Y3409D01*
X2906Y3406D01*
X2905Y3404D01*
X2904D01*
X2902Y3406D01*
X2898Y3434D02*
X2895Y3436D01*
X2891Y3440D01*
Y3410D01*
X2892Y3439D02*
Y3410D01*
X2898D02*
X2885D01*
X3167Y3955D02*
X3162Y3956D01*
X3171D01*
X3167Y3955D01*
X3170Y3952D01*
X3171Y3948D01*
Y3945D01*
X3170Y3941D01*
X3167Y3938D01*
X3164Y3936D01*
X3160Y3935D01*
X3152D01*
X3148Y3936D01*
X3145Y3938D01*
X3142Y3941D01*
X3141Y3945D01*
Y3948D01*
X3142Y3952D01*
X3145Y3955D01*
X3148Y3956D01*
X3171Y3945D02*
X3170Y3942D01*
X3167Y3939D01*
X3164Y3938D01*
X3160Y3936D01*
X3152D01*
X3148Y3938D01*
X3145Y3939D01*
X3142Y3942D01*
X3141Y3945D01*
X3168Y3975D02*
X3141D01*
X3150Y3984D02*
Y3961D01*
X3171Y3976D01*
X3141D01*
Y3971D02*
Y3981D01*
X2951Y3725D02*
X2946Y3726D01*
X2955D01*
X2951Y3725D01*
X2954Y3722D01*
X2955Y3718D01*
Y3715D01*
X2954Y3711D01*
X2951Y3708D01*
X2948Y3706D01*
X2944Y3705D01*
X2936D01*
X2932Y3706D01*
X2929Y3708D01*
X2926Y3711D01*
X2925Y3715D01*
Y3718D01*
X2926Y3722D01*
X2929Y3725D01*
X2932Y3726D01*
X2955Y3715D02*
X2954Y3712D01*
X2951Y3709D01*
X2948Y3708D01*
X2944Y3706D01*
X2936D01*
X2932Y3708D01*
X2929Y3709D01*
X2926Y3712D01*
X2925Y3715D01*
X2949Y3732D02*
X2948Y3734D01*
X2946Y3732D01*
X2948Y3731D01*
X2949D01*
X2952Y3732D01*
X2954Y3734D01*
X2955Y3738D01*
Y3744D01*
X2954Y3748D01*
X2951Y3749D01*
X2946D01*
X2944Y3748D01*
X2942Y3744D01*
Y3739D01*
X2955Y3744D02*
X2954Y3746D01*
X2951Y3748D01*
X2946D01*
X2944Y3746D01*
X2942Y3744D01*
X2941Y3746D01*
X2938Y3749D01*
X2935Y3751D01*
X2931D01*
X2928Y3749D01*
X2926Y3748D01*
X2925Y3744D01*
Y3738D01*
X2926Y3734D01*
X2928Y3732D01*
X2931Y3731D01*
X2932D01*
X2934Y3732D01*
X2932Y3734D01*
X2931Y3732D01*
X2939Y3748D02*
X2935Y3749D01*
X2931D01*
X2928Y3748D01*
X2926Y3746D01*
X2925Y3744D01*
D62*
X3134Y3530D02*
D03*
X2906Y3530D02*
D03*
X2893Y3950D02*
D03*
X3121Y3950D02*
D03*
D63*
X3119Y3530D02*
D03*
X2908Y3950D02*
D03*
M02*
