G04*
G04 #@! TF.GenerationSoftware,Altium Limited,Altium Designer,19.0.15 (446)*
G04*
G04 Layer_Color=255*
%FSLAX23Y23*%
%MOIN*%
G70*
G01*
G75*
%ADD16R,0.051X0.037*%
%ADD17R,0.028X0.035*%
%ADD18R,0.045X0.024*%
%ADD19R,0.037X0.051*%
%ADD20R,0.051X0.063*%
%ADD21R,0.035X0.028*%
%ADD22R,0.059X0.177*%
%ADD23R,0.079X0.063*%
G04:AMPARAMS|DCode=24|XSize=11mil|YSize=61mil|CornerRadius=3mil|HoleSize=0mil|Usage=FLASHONLY|Rotation=180.000|XOffset=0mil|YOffset=0mil|HoleType=Round|Shape=RoundedRectangle|*
%AMROUNDEDRECTD24*
21,1,0.011,0.056,0,0,180.0*
21,1,0.006,0.061,0,0,180.0*
1,1,0.006,-0.003,0.028*
1,1,0.006,0.003,0.028*
1,1,0.006,0.003,-0.028*
1,1,0.006,-0.003,-0.028*
%
%ADD24ROUNDEDRECTD24*%
G04:AMPARAMS|DCode=25|XSize=11mil|YSize=61mil|CornerRadius=3mil|HoleSize=0mil|Usage=FLASHONLY|Rotation=270.000|XOffset=0mil|YOffset=0mil|HoleType=Round|Shape=RoundedRectangle|*
%AMROUNDEDRECTD25*
21,1,0.011,0.056,0,0,270.0*
21,1,0.006,0.061,0,0,270.0*
1,1,0.006,-0.028,-0.003*
1,1,0.006,-0.028,0.003*
1,1,0.006,0.028,0.003*
1,1,0.006,0.028,-0.003*
%
%ADD25ROUNDEDRECTD25*%
%ADD26R,0.098X0.079*%
%ADD27R,0.089X0.020*%
G04:AMPARAMS|DCode=48|XSize=80mil|YSize=60mil|CornerRadius=0mil|HoleSize=0mil|Usage=FLASHONLY|Rotation=270.000|XOffset=0mil|YOffset=0mil|HoleType=Round|Shape=Octagon|*
%AMOCTAGOND48*
4,1,8,-0.015,-0.040,0.015,-0.040,0.030,-0.025,0.030,0.025,0.015,0.040,-0.015,0.040,-0.030,0.025,-0.030,-0.025,-0.015,-0.040,0.0*
%
%ADD48OCTAGOND48*%

G04:AMPARAMS|DCode=49|XSize=80mil|YSize=60mil|CornerRadius=0mil|HoleSize=0mil|Usage=FLASHONLY|Rotation=180.000|XOffset=0mil|YOffset=0mil|HoleType=Round|Shape=Octagon|*
%AMOCTAGOND49*
4,1,8,-0.040,0.015,-0.040,-0.015,-0.025,-0.030,0.025,-0.030,0.040,-0.015,0.040,0.015,0.025,0.030,-0.025,0.030,-0.040,0.015,0.0*
%
%ADD49OCTAGOND49*%

%ADD50C,0.037*%
D16*
X3700Y3741D02*
D03*
X3700Y3819D02*
D03*
X3094Y3351D02*
D03*
X3094Y3429D02*
D03*
X3170Y3351D02*
D03*
X3170Y3430D02*
D03*
X3705Y3524D02*
D03*
X3705Y3603D02*
D03*
X4210Y4014D02*
D03*
X4210Y3936D02*
D03*
X3525Y3944D02*
D03*
X3525Y3865D02*
D03*
X3605Y3904D02*
D03*
X3605Y3825D02*
D03*
X3287Y3942D02*
D03*
X3287Y3864D02*
D03*
X3212Y3942D02*
D03*
X3212Y3864D02*
D03*
D17*
X3855Y3405D02*
D03*
X3926D02*
D03*
X3745Y3435D02*
D03*
X3815D02*
D03*
X3160Y3550D02*
D03*
X3090D02*
D03*
X3160Y3600D02*
D03*
X3090D02*
D03*
X3030Y3345D02*
D03*
X2960D02*
D03*
X3550Y3400D02*
D03*
X3620D02*
D03*
X4280Y3789D02*
D03*
X4210D02*
D03*
X4180Y3680D02*
D03*
X4110D02*
D03*
X4280Y3567D02*
D03*
X4210D02*
D03*
X4406Y3975D02*
D03*
X4335D02*
D03*
X2975Y3955D02*
D03*
X3045D02*
D03*
X3370Y3881D02*
D03*
X3440D02*
D03*
D18*
X3039Y3575D02*
D03*
X2951Y3538D02*
D03*
Y3612D02*
D03*
D19*
X2981Y3775D02*
D03*
X3060D02*
D03*
D20*
X4188Y3392D02*
D03*
X4262D02*
D03*
X3805Y3320D02*
D03*
X3880D02*
D03*
D21*
X3985Y3310D02*
D03*
Y3381D02*
D03*
X4095Y3311D02*
D03*
Y3382D02*
D03*
X4005Y3820D02*
D03*
Y3890D02*
D03*
Y3696D02*
D03*
Y3767D02*
D03*
X3175Y3811D02*
D03*
Y3740D02*
D03*
D22*
X3840Y3902D02*
D03*
Y3568D02*
D03*
D23*
X2750Y3865D02*
D03*
Y3975D02*
D03*
D24*
X3508Y3450D02*
D03*
X3489D02*
D03*
X3469D02*
D03*
X3449D02*
D03*
X3430D02*
D03*
X3410D02*
D03*
X3390D02*
D03*
X3370D02*
D03*
X3351D02*
D03*
X3331D02*
D03*
X3311D02*
D03*
X3292D02*
D03*
Y3780D02*
D03*
X3311D02*
D03*
X3331D02*
D03*
X3351D02*
D03*
X3370D02*
D03*
X3390D02*
D03*
X3410D02*
D03*
X3430D02*
D03*
X3449D02*
D03*
X3469D02*
D03*
X3489D02*
D03*
X3508D02*
D03*
D25*
X3235Y3507D02*
D03*
Y3526D02*
D03*
Y3546D02*
D03*
Y3566D02*
D03*
Y3585D02*
D03*
Y3605D02*
D03*
Y3625D02*
D03*
Y3645D02*
D03*
Y3664D02*
D03*
Y3684D02*
D03*
Y3704D02*
D03*
Y3723D02*
D03*
X3565D02*
D03*
Y3704D02*
D03*
Y3684D02*
D03*
Y3664D02*
D03*
Y3645D02*
D03*
Y3625D02*
D03*
Y3605D02*
D03*
Y3585D02*
D03*
Y3566D02*
D03*
Y3546D02*
D03*
Y3526D02*
D03*
Y3507D02*
D03*
D26*
X2646Y3385D02*
D03*
Y3735D02*
D03*
X2860Y3385D02*
D03*
Y3735D02*
D03*
D27*
X2865Y3497D02*
D03*
Y3529D02*
D03*
Y3560D02*
D03*
Y3591D02*
D03*
Y3623D02*
D03*
D48*
X3310Y3300D02*
D03*
X3410D02*
D03*
X3510D02*
D03*
X3610D02*
D03*
X4110Y3985D02*
D03*
X4010D02*
D03*
D49*
X4365Y3826D02*
D03*
Y3726D02*
D03*
Y3626D02*
D03*
Y3526D02*
D03*
Y3426D02*
D03*
D50*
X2760Y3473D02*
D03*
Y3647D02*
D03*
M02*
