G04*
G04 #@! TF.GenerationSoftware,Altium Limited,Altium Designer,19.0.15 (446)*
G04*
G04 Layer_Color=65535*
%FSLAX23Y23*%
%MOIN*%
G70*
G01*
G75*
%ADD10C,0.010*%
%ADD11C,0.008*%
%ADD12C,0.004*%
%ADD13C,0.008*%
%ADD14C,0.005*%
%ADD15C,0.006*%
D10*
X3053Y3608D02*
G03*
X3053Y3608I-5J0D01*
G01*
D11*
X3642Y3499D02*
G03*
X3642Y3499I-6J0D01*
G01*
X2941Y3623D02*
G03*
X2941Y3623I-4J0D01*
G01*
X3678Y3774D02*
Y3786D01*
X3722Y3774D02*
Y3786D01*
X3877Y3421D02*
X3904Y3421D01*
X3877Y3389D02*
X3904Y3389D01*
X3766Y3451D02*
X3793Y3451D01*
X3767Y3419D02*
X3794Y3419D01*
X3112Y3534D02*
X3139Y3534D01*
X3111Y3566D02*
X3138Y3566D01*
X3112Y3584D02*
X3139Y3584D01*
X3111Y3616D02*
X3138Y3616D01*
X3023Y3516D02*
Y3547D01*
X2987Y3516D02*
X3023D01*
Y3603D02*
Y3634D01*
X2987D02*
X3023D01*
X3073Y3384D02*
Y3396D01*
X3116Y3384D02*
Y3396D01*
X3148Y3385D02*
Y3397D01*
X3192Y3385D02*
Y3397D01*
X3013Y3797D02*
X3025D01*
X3013Y3754D02*
X3025D01*
X2982Y3329D02*
X3009Y3329D01*
X2981Y3361D02*
X3008Y3361D01*
X3571Y3416D02*
X3598Y3416D01*
X3572Y3384D02*
X3599Y3384D01*
X4232Y3773D02*
X4259Y3773D01*
X4231Y3806D02*
X4258Y3806D01*
X4132Y3664D02*
X4159Y3664D01*
X4131Y3696D02*
X4158Y3696D01*
X4232Y3550D02*
X4259Y3550D01*
X4231Y3583D02*
X4258Y3583D01*
X3969Y3332D02*
X3969Y3359D01*
X4001Y3333D02*
X4001Y3359D01*
X4079Y3333D02*
X4079Y3359D01*
X4111Y3333D02*
X4111Y3360D01*
X3683Y3558D02*
Y3570D01*
X3727Y3558D02*
Y3570D01*
X3742Y3509D02*
Y3961D01*
X3781D01*
X3938Y3509D02*
Y3961D01*
X3742Y3509D02*
X3781D01*
X3899D02*
X3938D01*
X3899Y3961D02*
X3938D01*
X3742Y3538D02*
X3781D01*
X3899D02*
X3938D01*
X3989Y3841D02*
X3989Y3868D01*
X4021Y3842D02*
X4021Y3869D01*
X3989Y3718D02*
X3989Y3744D01*
X4021Y3718D02*
X4021Y3745D01*
X4357Y3959D02*
X4384Y3959D01*
X4357Y3991D02*
X4384Y3991D01*
X4232Y3969D02*
Y3981D01*
X4188Y3969D02*
Y3981D01*
X3547Y3898D02*
Y3910D01*
X3503Y3898D02*
Y3910D01*
X3627Y3858D02*
Y3870D01*
X3583Y3858D02*
Y3870D01*
X3308Y3897D02*
Y3909D01*
X3265Y3897D02*
Y3909D01*
X3233Y3897D02*
Y3909D01*
X3190Y3897D02*
Y3909D01*
X3191Y3762D02*
X3191Y3789D01*
X3159Y3762D02*
X3159Y3789D01*
X2996Y3971D02*
X3023Y3971D01*
X2997Y3939D02*
X3024Y3939D01*
X3391Y3897D02*
X3418Y3897D01*
X3392Y3864D02*
X3419Y3864D01*
D12*
X3670Y3840D02*
X3730D01*
X3670Y3720D02*
X3730D01*
X3064Y3450D02*
X3124D01*
X3064Y3330D02*
X3124D01*
X3140Y3451D02*
X3200D01*
X3140Y3331D02*
X3200D01*
X2961Y3743D02*
X3079D01*
X2961Y3807D02*
X3079D01*
X3675Y3624D02*
X3735D01*
X3675Y3504D02*
X3735D01*
X4180Y3915D02*
X4240D01*
X4180Y4035D02*
X4240D01*
X3495Y3844D02*
X3555D01*
X3495Y3964D02*
X3555D01*
X3575Y3804D02*
X3635D01*
X3575Y3924D02*
X3635D01*
X3257Y3843D02*
X3317D01*
X3257Y3963D02*
X3317D01*
X3182Y3843D02*
X3242D01*
X3182Y3963D02*
X3242D01*
D13*
X3285Y3350D02*
X3335D01*
X3360Y3325D01*
X3335Y3250D02*
X3360Y3275D01*
X3260Y3325D02*
X3285Y3350D01*
X3260Y3275D02*
Y3325D01*
Y3275D02*
X3285Y3250D01*
X3335D01*
X3585Y3350D02*
X3635D01*
X3660Y3325D01*
X3635Y3250D02*
X3660Y3275D01*
Y3325D01*
X3535Y3350D02*
X3560Y3325D01*
X3485Y3350D02*
X3535D01*
X3460Y3325D02*
X3485Y3350D01*
X3460Y3275D02*
Y3325D01*
Y3275D02*
X3485Y3250D01*
X3535D01*
X3560Y3275D01*
Y3325D02*
X3585Y3350D01*
X3560Y3275D02*
Y3325D01*
Y3275D02*
X3585Y3250D01*
X3635D01*
X3435Y3350D02*
X3460Y3325D01*
X3385Y3350D02*
X3435D01*
X3360Y3325D02*
X3385Y3350D01*
X3360Y3275D02*
Y3325D01*
Y3275D02*
X3385Y3250D01*
X3435D01*
X3460Y3275D01*
X4415Y3801D02*
Y3851D01*
X4390Y3776D02*
X4415Y3801D01*
X4315D02*
X4340Y3776D01*
X4390Y3876D02*
X4415Y3851D01*
X4340Y3876D02*
X4390D01*
X4315Y3851D02*
X4340Y3876D01*
X4315Y3801D02*
Y3851D01*
X4415Y3401D02*
Y3451D01*
X4390Y3376D02*
X4415Y3401D01*
X4315D02*
X4340Y3376D01*
X4390D01*
Y3476D02*
X4415Y3501D01*
Y3551D01*
X4390Y3576D02*
X4415Y3551D01*
X4340Y3576D02*
X4390D01*
X4315Y3551D02*
X4340Y3576D01*
X4315Y3501D02*
Y3551D01*
Y3501D02*
X4340Y3476D01*
X4390D02*
X4415Y3451D01*
X4340Y3476D02*
X4390D01*
X4315Y3451D02*
X4340Y3476D01*
X4315Y3401D02*
Y3451D01*
X4415Y3701D02*
Y3751D01*
X4390Y3676D02*
X4415Y3701D01*
X4315D02*
X4340Y3676D01*
X4390Y3576D02*
X4415Y3601D01*
Y3651D01*
X4390Y3676D02*
X4415Y3651D01*
X4340Y3676D02*
X4390D01*
X4315Y3651D02*
X4340Y3676D01*
X4315Y3601D02*
Y3651D01*
Y3601D02*
X4340Y3576D01*
X4390Y3776D02*
X4415Y3751D01*
X4340Y3776D02*
X4390D01*
X4315Y3751D02*
X4340Y3776D01*
X4315Y3701D02*
Y3751D01*
X4154Y3432D02*
X4296D01*
X4154Y3352D02*
X4296D01*
X4154D02*
Y3432D01*
X4296Y3352D02*
Y3432D01*
X4134Y3352D02*
Y3432D01*
Y3352D02*
X4154D01*
X4135Y3432D02*
X4154D01*
X3771Y3360D02*
X3913D01*
X3771Y3280D02*
X3913D01*
X3771D02*
Y3360D01*
X3913Y3280D02*
Y3360D01*
X3751Y3280D02*
Y3360D01*
Y3280D02*
X3771D01*
X3752Y3360D02*
X3771D01*
X3985Y3935D02*
X4035D01*
X3960Y3960D02*
X3985Y3935D01*
X3960Y4010D02*
X3985Y4035D01*
X3960Y3960D02*
Y4010D01*
X4060Y3960D02*
X4085Y3935D01*
X4135D01*
X4160Y3960D01*
Y4010D01*
X4135Y4035D02*
X4160Y4010D01*
X4085Y4035D02*
X4135D01*
X4060Y4010D02*
X4085Y4035D01*
X4035Y3935D02*
X4060Y3960D01*
Y4010D01*
X4035Y4035D02*
X4060Y4010D01*
X3985Y4035D02*
X4035D01*
X2702Y3805D02*
Y3825D01*
X2798Y3805D02*
Y3825D01*
X2702Y3805D02*
X2798D01*
X2702Y4015D02*
X2798D01*
X2702Y3825D02*
Y4015D01*
Y3825D02*
X2798D01*
Y4015D01*
X4414Y3220D02*
X4399Y3260D01*
X4384Y3220D01*
X4390Y3233D02*
X4409D01*
X4445Y3247D02*
X4424Y3220D01*
Y3247D02*
X4445D01*
X4424Y3220D02*
X4445D01*
X4453Y3247D02*
Y3220D01*
Y3235D02*
X4455Y3241D01*
X4459Y3245D01*
X4463Y3247D01*
X4468D01*
X4495D02*
Y3220D01*
Y3241D02*
X4491Y3245D01*
X4487Y3247D01*
X4482D01*
X4478Y3245D01*
X4474Y3241D01*
X4472Y3235D01*
Y3231D01*
X4474Y3226D01*
X4478Y3222D01*
X4482Y3220D01*
X4487D01*
X4491Y3222D01*
X4495Y3226D01*
D14*
X3258Y3473D02*
X3274D01*
X3258D02*
Y3489D01*
Y3741D02*
Y3757D01*
X3274D01*
X3526D02*
X3542D01*
Y3741D02*
Y3757D01*
Y3473D02*
Y3489D01*
X3526Y3473D02*
X3542D01*
X2530Y3408D02*
X2584D01*
X2530D02*
Y3712D01*
X2584D01*
X2892Y3434D02*
Y3477D01*
Y3643D02*
Y3686D01*
X2708Y3408D02*
X2799D01*
X2708Y3712D02*
X2799D01*
X2655Y3883D02*
X2685D01*
X2655Y3884D02*
X2685D01*
X2655Y3879D02*
Y3896D01*
X2656Y3900D01*
X2658Y3902D01*
X2661Y3903D01*
X2665D01*
X2668Y3902D01*
X2669Y3900D01*
X2671Y3896D01*
Y3884D01*
X2655Y3896D02*
X2656Y3899D01*
X2658Y3900D01*
X2661Y3902D01*
X2665D01*
X2668Y3900D01*
X2669Y3899D01*
X2671Y3896D01*
X2685Y3879D02*
Y3889D01*
X2655Y3917D02*
X2656Y3913D01*
X2659Y3910D01*
X2662Y3908D01*
X2668Y3907D01*
X2672D01*
X2678Y3908D01*
X2681Y3910D01*
X2684Y3913D01*
X2685Y3917D01*
Y3920D01*
X2684Y3924D01*
X2681Y3927D01*
X2678Y3928D01*
X2672Y3930D01*
X2668D01*
X2662Y3928D01*
X2659Y3927D01*
X2656Y3924D01*
X2655Y3920D01*
Y3917D01*
X2656Y3914D01*
X2659Y3911D01*
X2662Y3910D01*
X2668Y3908D01*
X2672D01*
X2678Y3910D01*
X2681Y3911D01*
X2684Y3914D01*
X2685Y3917D01*
Y3920D02*
X2684Y3923D01*
X2681Y3926D01*
X2678Y3927D01*
X2672Y3928D01*
X2668D01*
X2662Y3927D01*
X2659Y3926D01*
X2656Y3923D01*
X2655Y3920D01*
Y3938D02*
X2685Y3944D01*
X2655Y3940D02*
X2678Y3944D01*
X2655Y3950D02*
X2685Y3944D01*
X2655Y3950D02*
X2685Y3955D01*
X2655Y3951D02*
X2678Y3955D01*
X2655Y3961D02*
X2685Y3955D01*
X2655Y3934D02*
Y3944D01*
Y3957D02*
Y3965D01*
Y3973D02*
X2685D01*
X2655Y3974D02*
X2685D01*
X2664Y3983D02*
X2675D01*
X2655Y3969D02*
Y3992D01*
X2664D01*
X2655Y3990D01*
X2669Y3974D02*
Y3983D01*
X2685Y3969D02*
Y3992D01*
X2676D01*
X2685Y3990D01*
X2655Y4000D02*
X2685D01*
X2655Y4001D02*
X2685D01*
X2655Y3996D02*
Y4013D01*
X2656Y4017D01*
X2658Y4019D01*
X2661Y4020D01*
X2664D01*
X2666Y4019D01*
X2668Y4017D01*
X2669Y4013D01*
Y4001D01*
X2655Y4013D02*
X2656Y4016D01*
X2658Y4017D01*
X2661Y4019D01*
X2664D01*
X2666Y4017D01*
X2668Y4016D01*
X2669Y4013D01*
X2685Y3996D02*
Y4006D01*
X2669Y4009D02*
X2671Y4011D01*
X2672Y4013D01*
X2682Y4017D01*
X2684Y4019D01*
Y4020D01*
X2682Y4021D01*
X2671Y4011D02*
X2674Y4013D01*
X2684Y4016D01*
X2685Y4017D01*
Y4020D01*
X2682Y4021D01*
X2681D01*
X3789Y3260D02*
Y3230D01*
X3791Y3260D02*
Y3230D01*
X3785Y3260D02*
X3802D01*
X3806Y3259D01*
X3808Y3257D01*
X3809Y3254D01*
Y3251D01*
X3808Y3249D01*
X3806Y3247D01*
X3802Y3246D01*
Y3260D02*
X3805Y3259D01*
X3806Y3257D01*
X3808Y3254D01*
Y3251D01*
X3806Y3249D01*
X3805Y3247D01*
X3802Y3246D01*
X3791D02*
X3802D01*
X3806Y3244D01*
X3808Y3243D01*
X3809Y3240D01*
Y3236D01*
X3808Y3233D01*
X3806Y3231D01*
X3802Y3230D01*
X3785D01*
X3802Y3246D02*
X3805Y3244D01*
X3806Y3243D01*
X3808Y3240D01*
Y3236D01*
X3806Y3233D01*
X3805Y3231D01*
X3802Y3230D01*
X3818Y3260D02*
Y3230D01*
X3819Y3260D02*
Y3230D01*
X3813Y3260D02*
X3823D01*
X3813Y3230D02*
X3835D01*
Y3239D01*
X3833Y3230D01*
X3843Y3260D02*
Y3239D01*
X3845Y3234D01*
X3848Y3231D01*
X3852Y3230D01*
X3855D01*
X3859Y3231D01*
X3862Y3234D01*
X3863Y3239D01*
Y3260D01*
X3845D02*
Y3239D01*
X3846Y3234D01*
X3849Y3231D01*
X3852Y3230D01*
X3839Y3260D02*
X3849D01*
X3859D02*
X3868D01*
X3875D02*
Y3230D01*
X3877Y3260D02*
Y3230D01*
X3885Y3251D02*
Y3240D01*
X3871Y3260D02*
X3894D01*
Y3251D01*
X3893Y3260D01*
X3877Y3246D02*
X3885D01*
X3871Y3230D02*
X3894D01*
Y3239D01*
X3893Y3230D01*
X4184Y3335D02*
Y3305D01*
X4186Y3335D02*
Y3305D01*
X4180Y3335D02*
X4197D01*
X4201Y3334D01*
X4203Y3332D01*
X4204Y3329D01*
Y3326D01*
X4203Y3324D01*
X4201Y3322D01*
X4197Y3321D01*
X4186D01*
X4197Y3335D02*
X4200Y3334D01*
X4201Y3332D01*
X4203Y3329D01*
Y3326D01*
X4201Y3324D01*
X4200Y3322D01*
X4197Y3321D01*
X4180Y3305D02*
X4190D01*
X4193Y3321D02*
X4196Y3319D01*
X4197Y3318D01*
X4201Y3308D01*
X4203Y3306D01*
X4204D01*
X4206Y3308D01*
X4196Y3319D02*
X4197Y3316D01*
X4200Y3306D01*
X4201Y3305D01*
X4204D01*
X4206Y3308D01*
Y3309D01*
X4214Y3335D02*
Y3305D01*
X4215Y3335D02*
Y3305D01*
X4224Y3326D02*
Y3315D01*
X4210Y3335D02*
X4232D01*
Y3326D01*
X4231Y3335D01*
X4215Y3321D02*
X4224D01*
X4210Y3305D02*
X4232D01*
Y3314D01*
X4231Y3305D01*
X4241Y3335D02*
Y3305D01*
X4242Y3335D02*
Y3305D01*
X4237Y3335D02*
X4251D01*
X4255Y3334D01*
X4258Y3331D01*
X4259Y3328D01*
X4261Y3324D01*
Y3316D01*
X4259Y3312D01*
X4258Y3309D01*
X4255Y3306D01*
X4251Y3305D01*
X4237D01*
X4251Y3335D02*
X4254Y3334D01*
X4257Y3331D01*
X4258Y3328D01*
X4259Y3324D01*
Y3316D01*
X4258Y3312D01*
X4257Y3309D01*
X4254Y3306D01*
X4251Y3305D01*
X4433Y3838D02*
Y3810D01*
X4434Y3838D02*
Y3810D01*
X4429Y3838D02*
X4445D01*
X4449Y3837D01*
X4450Y3836D01*
X4451Y3833D01*
Y3830D01*
X4450Y3828D01*
X4449Y3826D01*
X4445Y3825D01*
X4434D01*
X4445Y3838D02*
X4447Y3837D01*
X4449Y3836D01*
X4450Y3833D01*
Y3830D01*
X4449Y3828D01*
X4447Y3826D01*
X4445Y3825D01*
X4429Y3810D02*
X4438D01*
X4441Y3825D02*
X4443Y3824D01*
X4445Y3822D01*
X4449Y3813D01*
X4450Y3812D01*
X4451D01*
X4453Y3813D01*
X4443Y3824D02*
X4445Y3821D01*
X4447Y3812D01*
X4449Y3810D01*
X4451D01*
X4453Y3813D01*
Y3814D01*
X4474Y3834D02*
X4475Y3838D01*
Y3830D01*
X4474Y3834D01*
X4471Y3837D01*
X4467Y3838D01*
X4463D01*
X4459Y3837D01*
X4456Y3834D01*
Y3832D01*
X4458Y3829D01*
X4459Y3828D01*
X4462Y3826D01*
X4470Y3824D01*
X4472Y3822D01*
X4475Y3820D01*
X4456Y3832D02*
X4459Y3829D01*
X4462Y3828D01*
X4470Y3825D01*
X4472Y3824D01*
X4474Y3822D01*
X4475Y3820D01*
Y3814D01*
X4472Y3812D01*
X4468Y3810D01*
X4464D01*
X4460Y3812D01*
X4458Y3814D01*
X4456Y3818D01*
Y3810D01*
X4458Y3814D01*
X4488Y3838D02*
Y3810D01*
X4490Y3838D02*
Y3810D01*
X4480Y3838D02*
X4479Y3830D01*
Y3838D01*
X4499D01*
Y3830D01*
X4498Y3838D01*
X4484Y3810D02*
X4494D01*
X4434Y3738D02*
Y3710D01*
X4435Y3738D02*
Y3710D01*
X4430Y3738D02*
X4443D01*
X4447Y3737D01*
X4450Y3734D01*
X4451Y3731D01*
X4453Y3727D01*
Y3721D01*
X4451Y3717D01*
X4450Y3714D01*
X4447Y3711D01*
X4443Y3710D01*
X4430D01*
X4443Y3738D02*
X4446Y3737D01*
X4449Y3734D01*
X4450Y3731D01*
X4451Y3727D01*
Y3721D01*
X4450Y3717D01*
X4449Y3714D01*
X4446Y3711D01*
X4443Y3710D01*
X4460Y3738D02*
Y3710D01*
X4462Y3738D02*
Y3710D01*
X4456Y3738D02*
X4466D01*
X4456Y3710D02*
X4466D01*
X4480Y3738D02*
X4476Y3737D01*
X4473Y3734D01*
X4472Y3731D01*
X4471Y3726D01*
Y3722D01*
X4472Y3717D01*
X4473Y3714D01*
X4476Y3711D01*
X4480Y3710D01*
X4483D01*
X4487Y3711D01*
X4489Y3714D01*
X4491Y3717D01*
X4492Y3722D01*
Y3726D01*
X4491Y3731D01*
X4489Y3734D01*
X4487Y3737D01*
X4483Y3738D01*
X4480D01*
X4477Y3737D01*
X4475Y3734D01*
X4473Y3731D01*
X4472Y3726D01*
Y3722D01*
X4473Y3717D01*
X4475Y3714D01*
X4477Y3711D01*
X4480Y3710D01*
X4483D02*
X4485Y3711D01*
X4488Y3714D01*
X4489Y3717D01*
X4491Y3722D01*
Y3726D01*
X4489Y3731D01*
X4488Y3734D01*
X4485Y3737D01*
X4483Y3738D01*
X4444Y3634D02*
X4446Y3630D01*
Y3638D01*
X4444Y3634D01*
X4442Y3637D01*
X4438Y3638D01*
X4435D01*
X4431Y3637D01*
X4428Y3634D01*
X4427Y3631D01*
X4426Y3627D01*
Y3621D01*
X4427Y3617D01*
X4428Y3614D01*
X4431Y3611D01*
X4435Y3610D01*
X4438D01*
X4442Y3611D01*
X4444Y3614D01*
X4435Y3638D02*
X4432Y3637D01*
X4430Y3634D01*
X4428Y3631D01*
X4427Y3627D01*
Y3621D01*
X4428Y3617D01*
X4430Y3614D01*
X4432Y3611D01*
X4435Y3610D01*
X4444Y3621D02*
Y3610D01*
X4446Y3621D02*
Y3610D01*
X4440Y3621D02*
X4450D01*
X4457Y3638D02*
Y3610D01*
X4459Y3638D02*
X4475Y3613D01*
X4459Y3635D02*
X4475Y3610D01*
Y3638D02*
Y3610D01*
X4453Y3638D02*
X4459D01*
X4471D02*
X4479D01*
X4453Y3610D02*
X4461D01*
X4486Y3638D02*
Y3610D01*
X4487Y3638D02*
Y3610D01*
X4482Y3638D02*
X4495D01*
X4499Y3637D01*
X4502Y3634D01*
X4503Y3631D01*
X4505Y3627D01*
Y3621D01*
X4503Y3617D01*
X4502Y3614D01*
X4499Y3611D01*
X4495Y3610D01*
X4482D01*
X4495Y3638D02*
X4498Y3637D01*
X4501Y3634D01*
X4502Y3631D01*
X4503Y3627D01*
Y3621D01*
X4502Y3617D01*
X4501Y3614D01*
X4498Y3611D01*
X4495Y3610D01*
X4444Y3539D02*
X4446Y3535D01*
Y3543D01*
X4444Y3539D01*
X4442Y3542D01*
X4438Y3543D01*
X4435D01*
X4431Y3542D01*
X4428Y3539D01*
X4427Y3536D01*
X4426Y3532D01*
Y3526D01*
X4427Y3522D01*
X4428Y3519D01*
X4431Y3516D01*
X4435Y3515D01*
X4438D01*
X4442Y3516D01*
X4444Y3519D01*
X4446Y3522D01*
X4435Y3543D02*
X4432Y3542D01*
X4430Y3539D01*
X4428Y3536D01*
X4427Y3532D01*
Y3526D01*
X4428Y3522D01*
X4430Y3519D01*
X4432Y3516D01*
X4435Y3515D01*
X4454Y3543D02*
Y3515D01*
X4455Y3543D02*
Y3515D01*
X4450Y3543D02*
X4459D01*
X4450Y3515D02*
X4470D01*
Y3523D01*
X4468Y3515D01*
X4478Y3543D02*
Y3515D01*
X4479Y3543D02*
Y3515D01*
X4496Y3543D02*
X4479Y3526D01*
X4486Y3531D02*
X4496Y3515D01*
X4484Y3531D02*
X4495Y3515D01*
X4474Y3543D02*
X4483D01*
X4491D02*
X4499D01*
X4474Y3515D02*
X4483D01*
X4491D02*
X4499D01*
X4431Y3433D02*
X4433Y3431D01*
X4431Y3430D01*
X4430Y3431D01*
Y3433D01*
X4431Y3435D01*
X4433Y3437D01*
X4437Y3438D01*
X4442D01*
X4446Y3437D01*
X4447Y3434D01*
Y3430D01*
X4446Y3427D01*
X4442Y3426D01*
X4438D01*
X4442Y3438D02*
X4445Y3437D01*
X4446Y3434D01*
Y3430D01*
X4445Y3427D01*
X4442Y3426D01*
X4445Y3425D01*
X4447Y3422D01*
X4449Y3419D01*
Y3415D01*
X4447Y3413D01*
X4446Y3411D01*
X4442Y3410D01*
X4437D01*
X4433Y3411D01*
X4431Y3413D01*
X4430Y3415D01*
Y3417D01*
X4431Y3418D01*
X4433Y3417D01*
X4431Y3415D01*
X4446Y3423D02*
X4447Y3419D01*
Y3415D01*
X4446Y3413D01*
X4445Y3411D01*
X4442Y3410D01*
X4455Y3438D02*
X4465Y3410D01*
X4457Y3438D02*
X4465Y3414D01*
X4474Y3438D02*
X4465Y3410D01*
X4453Y3438D02*
X4461D01*
X4469D02*
X4477D01*
X4482Y3433D02*
X4483Y3431D01*
X4482Y3430D01*
X4480Y3431D01*
Y3433D01*
X4482Y3435D01*
X4483Y3437D01*
X4487Y3438D01*
X4492D01*
X4496Y3437D01*
X4498Y3434D01*
Y3430D01*
X4496Y3427D01*
X4492Y3426D01*
X4488D01*
X4492Y3438D02*
X4495Y3437D01*
X4496Y3434D01*
Y3430D01*
X4495Y3427D01*
X4492Y3426D01*
X4495Y3425D01*
X4498Y3422D01*
X4499Y3419D01*
Y3415D01*
X4498Y3413D01*
X4496Y3411D01*
X4492Y3410D01*
X4487D01*
X4483Y3411D01*
X4482Y3413D01*
X4480Y3415D01*
Y3417D01*
X4482Y3418D01*
X4483Y3417D01*
X4482Y3415D01*
X4496Y3423D02*
X4498Y3419D01*
Y3415D01*
X4496Y3413D01*
X4495Y3411D01*
X4492Y3410D01*
X3689Y3880D02*
X3694Y3882D01*
X3685D01*
X3689Y3880D01*
X3686Y3878D01*
X3685Y3873D01*
Y3870D01*
X3686Y3866D01*
X3689Y3863D01*
X3692Y3862D01*
X3696Y3860D01*
X3704D01*
X3708Y3862D01*
X3711Y3863D01*
X3714Y3866D01*
X3715Y3870D01*
Y3873D01*
X3714Y3878D01*
X3711Y3880D01*
X3708Y3882D01*
X3685Y3870D02*
X3686Y3868D01*
X3689Y3865D01*
X3692Y3863D01*
X3696Y3862D01*
X3704D01*
X3708Y3863D01*
X3711Y3865D01*
X3714Y3868D01*
X3715Y3870D01*
X3691Y3888D02*
X3692Y3889D01*
X3694Y3888D01*
X3692Y3886D01*
X3691D01*
X3688Y3888D01*
X3686Y3889D01*
X3685Y3893D01*
Y3899D01*
X3686Y3903D01*
X3688Y3905D01*
X3691Y3906D01*
X3694D01*
X3696Y3905D01*
X3699Y3900D01*
X3702Y3893D01*
X3704Y3890D01*
X3706Y3888D01*
X3711Y3886D01*
X3715D01*
X3685Y3899D02*
X3686Y3902D01*
X3688Y3903D01*
X3691Y3905D01*
X3694D01*
X3696Y3903D01*
X3699Y3899D01*
X3702Y3893D01*
X3712Y3886D02*
X3711Y3888D01*
Y3890D01*
X3714Y3898D01*
Y3902D01*
X3712Y3905D01*
X3711Y3906D01*
X3708D01*
X3711Y3890D02*
X3715Y3898D01*
Y3903D01*
X3714Y3905D01*
X3711Y3906D01*
X3743Y4015D02*
X3753Y3999D01*
Y3985D01*
X3744Y4015D02*
X3754Y3999D01*
Y3985D01*
X3764Y4015D02*
X3754Y3999D01*
X3740Y4015D02*
X3749D01*
X3759D02*
X3767D01*
X3749Y3985D02*
X3759D01*
X3771Y4009D02*
X3774Y4011D01*
X3778Y4015D01*
Y3985D01*
X3777Y4014D02*
Y3985D01*
X3771D02*
X3784D01*
X3910Y3989D02*
X3940Y3995D01*
X3910Y3991D02*
X3933Y3995D01*
X3910Y4001D02*
X3940Y3995D01*
X3910Y4001D02*
X3940Y4006D01*
X3910Y4002D02*
X3933Y4006D01*
X3910Y4012D02*
X3940Y4006D01*
X3910Y3985D02*
Y3995D01*
Y4008D02*
Y4016D01*
X3916Y4020D02*
X3914Y4023D01*
X3910Y4027D01*
X3940D01*
X3911Y4025D02*
X3940D01*
Y4020D02*
Y4033D01*
X3219Y3815D02*
Y3794D01*
X3221Y3789D01*
X3224Y3786D01*
X3228Y3785D01*
X3231D01*
X3235Y3786D01*
X3238Y3789D01*
X3239Y3794D01*
Y3815D01*
X3221D02*
Y3794D01*
X3222Y3789D01*
X3225Y3786D01*
X3228Y3785D01*
X3215Y3815D02*
X3225D01*
X3235D02*
X3244D01*
X3247Y3809D02*
X3250Y3811D01*
X3254Y3815D01*
Y3785D01*
X3253Y3814D02*
Y3785D01*
X3247D02*
X3260D01*
X3654Y3451D02*
Y3421D01*
X3656Y3451D02*
Y3421D01*
X3650Y3451D02*
X3667D01*
X3671Y3450D01*
X3673Y3448D01*
X3674Y3445D01*
Y3443D01*
X3673Y3440D01*
X3671Y3438D01*
X3667Y3437D01*
X3656D01*
X3667Y3451D02*
X3670Y3450D01*
X3671Y3448D01*
X3673Y3445D01*
Y3443D01*
X3671Y3440D01*
X3670Y3438D01*
X3667Y3437D01*
X3650Y3421D02*
X3660D01*
X3663Y3437D02*
X3666Y3435D01*
X3667Y3434D01*
X3671Y3424D01*
X3673Y3423D01*
X3674D01*
X3676Y3424D01*
X3666Y3435D02*
X3667Y3433D01*
X3670Y3423D01*
X3671Y3421D01*
X3674D01*
X3676Y3424D01*
Y3425D01*
X3681Y3445D02*
X3682Y3444D01*
X3681Y3443D01*
X3680Y3444D01*
Y3445D01*
X3681Y3448D01*
X3682Y3450D01*
X3687Y3451D01*
X3692D01*
X3697Y3450D01*
X3698Y3448D01*
X3700Y3445D01*
Y3443D01*
X3698Y3440D01*
X3694Y3437D01*
X3687Y3434D01*
X3684Y3433D01*
X3681Y3430D01*
X3680Y3425D01*
Y3421D01*
X3692Y3451D02*
X3695Y3450D01*
X3697Y3448D01*
X3698Y3445D01*
Y3443D01*
X3697Y3440D01*
X3692Y3437D01*
X3687Y3434D01*
X3680Y3424D02*
X3681Y3425D01*
X3684D01*
X3691Y3423D01*
X3695D01*
X3698Y3424D01*
X3700Y3425D01*
Y3428D01*
X3684Y3425D02*
X3691Y3421D01*
X3697D01*
X3698Y3423D01*
X3700Y3425D01*
X3704Y3445D02*
X3707Y3447D01*
X3711Y3451D01*
Y3421D01*
X3710Y3450D02*
Y3421D01*
X3704D02*
X3717D01*
X3110Y3749D02*
X3140D01*
X3110Y3751D02*
X3140D01*
X3110Y3745D02*
Y3762D01*
X3111Y3766D01*
X3113Y3768D01*
X3116Y3769D01*
X3119D01*
X3121Y3768D01*
X3123Y3766D01*
X3124Y3762D01*
Y3751D01*
X3110Y3762D02*
X3111Y3765D01*
X3113Y3766D01*
X3116Y3768D01*
X3119D01*
X3121Y3766D01*
X3123Y3765D01*
X3124Y3762D01*
X3140Y3745D02*
Y3755D01*
X3124Y3758D02*
X3126Y3761D01*
X3127Y3762D01*
X3137Y3766D01*
X3139Y3768D01*
Y3769D01*
X3137Y3771D01*
X3126Y3761D02*
X3129Y3762D01*
X3139Y3765D01*
X3140Y3766D01*
Y3769D01*
X3137Y3771D01*
X3136D01*
X3116Y3776D02*
X3117Y3777D01*
X3119Y3776D01*
X3117Y3775D01*
X3116D01*
X3113Y3776D01*
X3111Y3777D01*
X3110Y3782D01*
Y3787D01*
X3111Y3792D01*
X3113Y3793D01*
X3116Y3795D01*
X3119D01*
X3121Y3793D01*
X3124Y3789D01*
X3127Y3782D01*
X3129Y3779D01*
X3131Y3776D01*
X3136Y3775D01*
X3140D01*
X3110Y3787D02*
X3111Y3790D01*
X3113Y3792D01*
X3116Y3793D01*
X3119D01*
X3121Y3792D01*
X3124Y3787D01*
X3127Y3782D01*
X3137Y3775D02*
X3136Y3776D01*
Y3779D01*
X3139Y3786D01*
Y3790D01*
X3137Y3793D01*
X3136Y3795D01*
X3133D01*
X3136Y3779D02*
X3140Y3786D01*
Y3792D01*
X3139Y3793D01*
X3136Y3795D01*
X3110Y3808D02*
X3111Y3803D01*
X3116Y3800D01*
X3123Y3799D01*
X3127D01*
X3134Y3800D01*
X3139Y3803D01*
X3140Y3808D01*
Y3810D01*
X3139Y3815D01*
X3134Y3818D01*
X3127Y3819D01*
X3123D01*
X3116Y3818D01*
X3111Y3815D01*
X3110Y3810D01*
Y3808D01*
X3111Y3805D01*
X3113Y3803D01*
X3116Y3802D01*
X3123Y3800D01*
X3127D01*
X3134Y3802D01*
X3137Y3803D01*
X3139Y3805D01*
X3140Y3808D01*
Y3810D02*
X3139Y3813D01*
X3137Y3815D01*
X3134Y3816D01*
X3127Y3818D01*
X3123D01*
X3116Y3816D01*
X3113Y3815D01*
X3111Y3813D01*
X3110Y3810D01*
X4439Y3995D02*
Y3965D01*
X4441Y3995D02*
Y3965D01*
X4435Y3995D02*
X4452D01*
X4456Y3994D01*
X4458Y3992D01*
X4459Y3989D01*
Y3986D01*
X4458Y3984D01*
X4456Y3982D01*
X4452Y3981D01*
X4441D01*
X4452Y3995D02*
X4455Y3994D01*
X4456Y3992D01*
X4458Y3989D01*
Y3986D01*
X4456Y3984D01*
X4455Y3982D01*
X4452Y3981D01*
X4435Y3965D02*
X4445D01*
X4448Y3981D02*
X4451Y3979D01*
X4452Y3978D01*
X4456Y3968D01*
X4458Y3966D01*
X4459D01*
X4461Y3968D01*
X4451Y3979D02*
X4452Y3976D01*
X4455Y3966D01*
X4456Y3965D01*
X4459D01*
X4461Y3968D01*
Y3969D01*
X4465Y3989D02*
X4467Y3991D01*
X4472Y3995D01*
Y3965D01*
X4470Y3994D02*
Y3965D01*
X4465D02*
X4477D01*
X4501Y3985D02*
X4500Y3981D01*
X4497Y3978D01*
X4493Y3976D01*
X4491D01*
X4487Y3978D01*
X4484Y3981D01*
X4483Y3985D01*
Y3986D01*
X4484Y3991D01*
X4487Y3994D01*
X4491Y3995D01*
X4494D01*
X4498Y3994D01*
X4501Y3991D01*
X4503Y3986D01*
Y3978D01*
X4501Y3972D01*
X4500Y3969D01*
X4497Y3966D01*
X4493Y3965D01*
X4488D01*
X4485Y3966D01*
X4484Y3969D01*
Y3971D01*
X4485Y3972D01*
X4487Y3971D01*
X4485Y3969D01*
X4491Y3976D02*
X4488Y3978D01*
X4485Y3981D01*
X4484Y3985D01*
Y3986D01*
X4485Y3991D01*
X4488Y3994D01*
X4491Y3995D01*
X4494D02*
X4497Y3994D01*
X4500Y3991D01*
X4501Y3986D01*
Y3978D01*
X4500Y3972D01*
X4498Y3969D01*
X4495Y3966D01*
X4493Y3965D01*
X4214Y3856D02*
Y3826D01*
X4215Y3856D02*
Y3826D01*
X4210Y3856D02*
X4227D01*
X4231Y3854D01*
X4232Y3853D01*
X4234Y3850D01*
Y3847D01*
X4232Y3844D01*
X4231Y3843D01*
X4227Y3842D01*
X4215D01*
X4227Y3856D02*
X4230Y3854D01*
X4231Y3853D01*
X4232Y3850D01*
Y3847D01*
X4231Y3844D01*
X4230Y3843D01*
X4227Y3842D01*
X4210Y3826D02*
X4220D01*
X4222Y3842D02*
X4225Y3840D01*
X4227Y3839D01*
X4231Y3829D01*
X4232Y3827D01*
X4234D01*
X4235Y3829D01*
X4225Y3840D02*
X4227Y3837D01*
X4230Y3827D01*
X4231Y3826D01*
X4234D01*
X4235Y3829D01*
Y3830D01*
X4239Y3850D02*
X4242Y3852D01*
X4246Y3856D01*
Y3826D01*
X4245Y3854D02*
Y3826D01*
X4239D02*
X4252D01*
X4264Y3856D02*
X4260Y3854D01*
X4259Y3852D01*
Y3847D01*
X4260Y3844D01*
X4264Y3843D01*
X4270D01*
X4274Y3844D01*
X4276Y3847D01*
Y3852D01*
X4274Y3854D01*
X4270Y3856D01*
X4264D01*
X4261Y3854D01*
X4260Y3852D01*
Y3847D01*
X4261Y3844D01*
X4264Y3843D01*
X4270D02*
X4273Y3844D01*
X4274Y3847D01*
Y3852D01*
X4273Y3854D01*
X4270Y3856D01*
X4264Y3843D02*
X4260Y3842D01*
X4259Y3840D01*
X4257Y3837D01*
Y3832D01*
X4259Y3829D01*
X4260Y3827D01*
X4264Y3826D01*
X4270D01*
X4274Y3827D01*
X4276Y3829D01*
X4277Y3832D01*
Y3837D01*
X4276Y3840D01*
X4274Y3842D01*
X4270Y3843D01*
X4264D02*
X4261Y3842D01*
X4260Y3840D01*
X4259Y3837D01*
Y3832D01*
X4260Y3829D01*
X4261Y3827D01*
X4264Y3826D01*
X4270D02*
X4273Y3827D01*
X4274Y3829D01*
X4276Y3832D01*
Y3837D01*
X4274Y3840D01*
X4273Y3842D01*
X4270Y3843D01*
X4119Y3745D02*
Y3715D01*
X4121Y3745D02*
Y3715D01*
X4115Y3745D02*
X4132D01*
X4136Y3744D01*
X4138Y3742D01*
X4139Y3739D01*
Y3736D01*
X4138Y3734D01*
X4136Y3732D01*
X4132Y3731D01*
X4121D01*
X4132Y3745D02*
X4135Y3744D01*
X4136Y3742D01*
X4138Y3739D01*
Y3736D01*
X4136Y3734D01*
X4135Y3732D01*
X4132Y3731D01*
X4115Y3715D02*
X4125D01*
X4128Y3731D02*
X4131Y3729D01*
X4132Y3728D01*
X4136Y3718D01*
X4138Y3716D01*
X4139D01*
X4141Y3718D01*
X4131Y3729D02*
X4132Y3726D01*
X4135Y3716D01*
X4136Y3715D01*
X4139D01*
X4141Y3718D01*
Y3719D01*
X4145Y3739D02*
X4147Y3741D01*
X4152Y3745D01*
Y3715D01*
X4150Y3744D02*
Y3715D01*
X4145D02*
X4157D01*
X4163Y3745D02*
Y3736D01*
Y3739D02*
X4164Y3742D01*
X4167Y3745D01*
X4170D01*
X4177Y3741D01*
X4180D01*
X4181Y3742D01*
X4183Y3745D01*
X4164Y3742D02*
X4167Y3744D01*
X4170D01*
X4177Y3741D01*
X4183Y3745D02*
Y3741D01*
X4181Y3736D01*
X4175Y3729D01*
X4174Y3726D01*
X4173Y3722D01*
Y3715D01*
X4181Y3736D02*
X4174Y3729D01*
X4173Y3726D01*
X4171Y3722D01*
Y3715D01*
X4214Y3633D02*
Y3603D01*
X4216Y3633D02*
Y3603D01*
X4210Y3633D02*
X4227D01*
X4231Y3632D01*
X4233Y3630D01*
X4234Y3628D01*
Y3625D01*
X4233Y3622D01*
X4231Y3620D01*
X4227Y3619D01*
X4216D01*
X4227Y3633D02*
X4230Y3632D01*
X4231Y3630D01*
X4233Y3628D01*
Y3625D01*
X4231Y3622D01*
X4230Y3620D01*
X4227Y3619D01*
X4210Y3603D02*
X4220D01*
X4223Y3619D02*
X4226Y3618D01*
X4227Y3616D01*
X4231Y3606D01*
X4233Y3605D01*
X4234D01*
X4236Y3606D01*
X4226Y3618D02*
X4227Y3615D01*
X4230Y3605D01*
X4231Y3603D01*
X4234D01*
X4236Y3606D01*
Y3608D01*
X4240Y3628D02*
X4242Y3629D01*
X4247Y3633D01*
Y3603D01*
X4245Y3632D02*
Y3603D01*
X4240D02*
X4252D01*
X4275Y3629D02*
X4273Y3628D01*
X4275Y3626D01*
X4276Y3628D01*
Y3629D01*
X4275Y3632D01*
X4272Y3633D01*
X4268D01*
X4263Y3632D01*
X4260Y3629D01*
X4259Y3626D01*
X4258Y3620D01*
Y3612D01*
X4259Y3608D01*
X4262Y3605D01*
X4266Y3603D01*
X4269D01*
X4273Y3605D01*
X4276Y3608D01*
X4278Y3612D01*
Y3613D01*
X4276Y3618D01*
X4273Y3620D01*
X4269Y3622D01*
X4268D01*
X4263Y3620D01*
X4260Y3618D01*
X4259Y3613D01*
X4268Y3633D02*
X4265Y3632D01*
X4262Y3629D01*
X4260Y3626D01*
X4259Y3620D01*
Y3612D01*
X4260Y3608D01*
X4263Y3605D01*
X4266Y3603D01*
X4269D02*
X4272Y3605D01*
X4275Y3608D01*
X4276Y3612D01*
Y3613D01*
X4275Y3618D01*
X4272Y3620D01*
X4269Y3622D01*
X3376Y3945D02*
Y3915D01*
X3378Y3945D02*
Y3915D01*
X3372Y3945D02*
X3389D01*
X3393Y3944D01*
X3395Y3942D01*
X3396Y3939D01*
Y3936D01*
X3395Y3934D01*
X3393Y3932D01*
X3389Y3931D01*
X3378D01*
X3389Y3945D02*
X3392Y3944D01*
X3393Y3942D01*
X3395Y3939D01*
Y3936D01*
X3393Y3934D01*
X3392Y3932D01*
X3389Y3931D01*
X3372Y3915D02*
X3382D01*
X3385Y3931D02*
X3388Y3929D01*
X3389Y3928D01*
X3393Y3918D01*
X3395Y3916D01*
X3396D01*
X3398Y3918D01*
X3388Y3929D02*
X3389Y3926D01*
X3392Y3916D01*
X3393Y3915D01*
X3396D01*
X3398Y3918D01*
Y3919D01*
X3401Y3939D02*
X3404Y3941D01*
X3409Y3945D01*
Y3915D01*
X3407Y3944D02*
Y3915D01*
X3401D02*
X3414D01*
X3422Y3945D02*
X3419Y3931D01*
X3422Y3934D01*
X3427Y3935D01*
X3431D01*
X3435Y3934D01*
X3438Y3931D01*
X3439Y3926D01*
Y3924D01*
X3438Y3919D01*
X3435Y3916D01*
X3431Y3915D01*
X3427D01*
X3422Y3916D01*
X3421Y3918D01*
X3419Y3921D01*
Y3922D01*
X3421Y3924D01*
X3422Y3922D01*
X3421Y3921D01*
X3431Y3935D02*
X3434Y3934D01*
X3437Y3931D01*
X3438Y3926D01*
Y3924D01*
X3437Y3919D01*
X3434Y3916D01*
X3431Y3915D01*
X3422Y3945D02*
X3437D01*
X3422Y3944D02*
X3429D01*
X3437Y3945D01*
X4070Y3886D02*
X4040D01*
X4070Y3884D02*
X4040D01*
X4070Y3890D02*
Y3873D01*
X4069Y3869D01*
X4067Y3867D01*
X4064Y3866D01*
X4061D01*
X4059Y3867D01*
X4057Y3869D01*
X4056Y3873D01*
Y3884D01*
X4070Y3873D02*
X4069Y3870D01*
X4067Y3869D01*
X4064Y3867D01*
X4061D01*
X4059Y3869D01*
X4057Y3870D01*
X4056Y3873D01*
X4040Y3890D02*
Y3880D01*
X4056Y3877D02*
X4054Y3874D01*
X4053Y3873D01*
X4043Y3869D01*
X4041Y3867D01*
Y3866D01*
X4043Y3864D01*
X4054Y3874D02*
X4051Y3873D01*
X4041Y3870D01*
X4040Y3869D01*
Y3866D01*
X4043Y3864D01*
X4044D01*
X4064Y3860D02*
X4066Y3858D01*
X4070Y3853D01*
X4040D01*
X4069Y3855D02*
X4040D01*
Y3860D02*
Y3848D01*
X4067Y3828D02*
X4040D01*
X4049Y3820D02*
Y3842D01*
X4070Y3827D01*
X4040D01*
Y3832D02*
Y3822D01*
X3970Y3224D02*
X4000D01*
X3970Y3226D02*
X4000D01*
X3970Y3220D02*
Y3237D01*
X3971Y3241D01*
X3973Y3243D01*
X3976Y3244D01*
X3979D01*
X3981Y3243D01*
X3983Y3241D01*
X3984Y3237D01*
Y3226D01*
X3970Y3237D02*
X3971Y3240D01*
X3973Y3241D01*
X3976Y3243D01*
X3979D01*
X3981Y3241D01*
X3983Y3240D01*
X3984Y3237D01*
X4000Y3220D02*
Y3230D01*
X3984Y3233D02*
X3986Y3236D01*
X3987Y3237D01*
X3997Y3241D01*
X3999Y3243D01*
Y3244D01*
X3997Y3246D01*
X3986Y3236D02*
X3989Y3237D01*
X3999Y3240D01*
X4000Y3241D01*
Y3244D01*
X3997Y3246D01*
X3996D01*
X3976Y3250D02*
X3974Y3252D01*
X3970Y3257D01*
X4000D01*
X3971Y3255D02*
X4000D01*
Y3250D02*
Y3262D01*
X3976Y3269D02*
X3977Y3270D01*
X3979Y3269D01*
X3977Y3268D01*
X3976D01*
X3973Y3269D01*
X3971Y3270D01*
X3970Y3275D01*
Y3280D01*
X3971Y3285D01*
X3974Y3286D01*
X3979D01*
X3981Y3285D01*
X3983Y3280D01*
Y3276D01*
X3970Y3280D02*
X3971Y3283D01*
X3974Y3285D01*
X3979D01*
X3981Y3283D01*
X3983Y3280D01*
X3984Y3283D01*
X3987Y3286D01*
X3990Y3288D01*
X3994D01*
X3997Y3286D01*
X3999Y3285D01*
X4000Y3280D01*
Y3275D01*
X3999Y3270D01*
X3997Y3269D01*
X3994Y3268D01*
X3993D01*
X3991Y3269D01*
X3993Y3270D01*
X3994Y3269D01*
X3986Y3285D02*
X3990Y3286D01*
X3994D01*
X3997Y3285D01*
X3999Y3283D01*
X4000Y3280D01*
X4070Y3761D02*
X4040D01*
X4070Y3759D02*
X4040D01*
X4070Y3765D02*
Y3748D01*
X4069Y3744D01*
X4067Y3742D01*
X4064Y3741D01*
X4061D01*
X4059Y3742D01*
X4057Y3744D01*
X4056Y3748D01*
Y3759D01*
X4070Y3748D02*
X4069Y3745D01*
X4067Y3744D01*
X4064Y3742D01*
X4061D01*
X4059Y3744D01*
X4057Y3745D01*
X4056Y3748D01*
X4040Y3765D02*
Y3755D01*
X4056Y3752D02*
X4054Y3749D01*
X4053Y3748D01*
X4043Y3744D01*
X4041Y3742D01*
Y3741D01*
X4043Y3739D01*
X4054Y3749D02*
X4051Y3748D01*
X4041Y3745D01*
X4040Y3744D01*
Y3741D01*
X4043Y3739D01*
X4044D01*
X4064Y3735D02*
X4066Y3733D01*
X4070Y3728D01*
X4040D01*
X4069Y3730D02*
X4040D01*
Y3735D02*
Y3723D01*
X4064Y3716D02*
X4063Y3715D01*
X4061Y3716D01*
X4063Y3717D01*
X4064D01*
X4067Y3716D01*
X4069Y3715D01*
X4070Y3710D01*
Y3705D01*
X4069Y3700D01*
X4067Y3699D01*
X4064Y3697D01*
X4061D01*
X4059Y3699D01*
X4056Y3703D01*
X4053Y3710D01*
X4051Y3713D01*
X4049Y3716D01*
X4044Y3717D01*
X4040D01*
X4070Y3705D02*
X4069Y3702D01*
X4067Y3700D01*
X4064Y3699D01*
X4061D01*
X4059Y3700D01*
X4056Y3705D01*
X4053Y3710D01*
X4043Y3717D02*
X4044Y3716D01*
Y3713D01*
X4041Y3706D01*
Y3702D01*
X4043Y3699D01*
X4044Y3697D01*
X4047D01*
X4044Y3713D02*
X4040Y3706D01*
Y3700D01*
X4041Y3699D01*
X4044Y3697D01*
X4080Y3420D02*
X4110D01*
X4080Y3422D02*
X4110D01*
X4080Y3416D02*
Y3433D01*
X4081Y3437D01*
X4082Y3439D01*
X4085Y3440D01*
X4088D01*
X4091Y3439D01*
X4092Y3437D01*
X4094Y3433D01*
Y3422D01*
X4080Y3433D02*
X4081Y3436D01*
X4082Y3437D01*
X4085Y3439D01*
X4088D01*
X4091Y3437D01*
X4092Y3436D01*
X4094Y3433D01*
X4110Y3416D02*
Y3426D01*
X4094Y3429D02*
X4095Y3432D01*
X4097Y3433D01*
X4107Y3437D01*
X4108Y3439D01*
Y3440D01*
X4107Y3442D01*
X4095Y3432D02*
X4098Y3433D01*
X4108Y3436D01*
X4110Y3437D01*
Y3440D01*
X4107Y3442D01*
X4105D01*
X4085Y3445D02*
X4084Y3448D01*
X4080Y3453D01*
X4110D01*
X4081Y3451D02*
X4110D01*
Y3445D02*
Y3458D01*
X4085Y3463D02*
X4084Y3466D01*
X4080Y3471D01*
X4110D01*
X4081Y3469D02*
X4110D01*
Y3463D02*
Y3476D01*
X3859Y3469D02*
Y3439D01*
X3861Y3469D02*
Y3439D01*
X3855Y3469D02*
X3872D01*
X3876Y3467D01*
X3878Y3466D01*
X3879Y3463D01*
Y3460D01*
X3878Y3457D01*
X3876Y3456D01*
X3872Y3454D01*
X3861D01*
X3872Y3469D02*
X3875Y3467D01*
X3876Y3466D01*
X3878Y3463D01*
Y3460D01*
X3876Y3457D01*
X3875Y3456D01*
X3872Y3454D01*
X3855Y3439D02*
X3865D01*
X3868Y3454D02*
X3871Y3453D01*
X3872Y3452D01*
X3876Y3442D01*
X3878Y3440D01*
X3879D01*
X3881Y3442D01*
X3871Y3453D02*
X3872Y3450D01*
X3875Y3440D01*
X3876Y3439D01*
X3879D01*
X3881Y3442D01*
Y3443D01*
X3885Y3463D02*
X3887Y3464D01*
X3892Y3469D01*
Y3439D01*
X3890Y3467D02*
Y3439D01*
X3885D02*
X3897D01*
X3911Y3469D02*
X3907Y3467D01*
X3904Y3463D01*
X3903Y3456D01*
Y3452D01*
X3904Y3444D01*
X3907Y3440D01*
X3911Y3439D01*
X3914D01*
X3918Y3440D01*
X3921Y3444D01*
X3923Y3452D01*
Y3456D01*
X3921Y3463D01*
X3918Y3467D01*
X3914Y3469D01*
X3911D01*
X3908Y3467D01*
X3907Y3466D01*
X3905Y3463D01*
X3904Y3456D01*
Y3452D01*
X3905Y3444D01*
X3907Y3442D01*
X3908Y3440D01*
X3911Y3439D01*
X3914D02*
X3917Y3440D01*
X3918Y3442D01*
X3920Y3444D01*
X3921Y3452D01*
Y3456D01*
X3920Y3463D01*
X3918Y3466D01*
X3917Y3467D01*
X3914Y3469D01*
X3564Y3465D02*
Y3435D01*
X3566Y3465D02*
Y3435D01*
X3560Y3465D02*
X3577D01*
X3581Y3464D01*
X3583Y3462D01*
X3584Y3459D01*
Y3456D01*
X3583Y3454D01*
X3581Y3452D01*
X3577Y3451D01*
X3566D01*
X3577Y3465D02*
X3580Y3464D01*
X3581Y3462D01*
X3583Y3459D01*
Y3456D01*
X3581Y3454D01*
X3580Y3452D01*
X3577Y3451D01*
X3560Y3435D02*
X3570D01*
X3573Y3451D02*
X3576Y3449D01*
X3577Y3448D01*
X3581Y3438D01*
X3583Y3436D01*
X3584D01*
X3586Y3438D01*
X3576Y3449D02*
X3577Y3446D01*
X3580Y3436D01*
X3581Y3435D01*
X3584D01*
X3586Y3438D01*
Y3439D01*
X3608Y3455D02*
X3607Y3451D01*
X3604Y3448D01*
X3600Y3446D01*
X3598D01*
X3594Y3448D01*
X3591Y3451D01*
X3590Y3455D01*
Y3456D01*
X3591Y3461D01*
X3594Y3464D01*
X3598Y3465D01*
X3601D01*
X3605Y3464D01*
X3608Y3461D01*
X3610Y3456D01*
Y3448D01*
X3608Y3442D01*
X3607Y3439D01*
X3604Y3436D01*
X3600Y3435D01*
X3595D01*
X3592Y3436D01*
X3591Y3439D01*
Y3441D01*
X3592Y3442D01*
X3594Y3441D01*
X3592Y3439D01*
X3598Y3446D02*
X3595Y3448D01*
X3592Y3451D01*
X3591Y3455D01*
Y3456D01*
X3592Y3461D01*
X3595Y3464D01*
X3598Y3465D01*
X3601D02*
X3604Y3464D01*
X3607Y3461D01*
X3608Y3456D01*
Y3448D01*
X3607Y3442D01*
X3605Y3439D01*
X3602Y3436D01*
X3600Y3435D01*
X2984Y4020D02*
Y3990D01*
X2986Y4020D02*
Y3990D01*
X2980Y4020D02*
X2997D01*
X3001Y4019D01*
X3003Y4017D01*
X3004Y4014D01*
Y4011D01*
X3003Y4009D01*
X3001Y4007D01*
X2997Y4006D01*
X2986D01*
X2997Y4020D02*
X3000Y4019D01*
X3001Y4017D01*
X3003Y4014D01*
Y4011D01*
X3001Y4009D01*
X3000Y4007D01*
X2997Y4006D01*
X2980Y3990D02*
X2990D01*
X2993Y4006D02*
X2996Y4004D01*
X2997Y4003D01*
X3001Y3993D01*
X3003Y3991D01*
X3004D01*
X3006Y3993D01*
X2996Y4004D02*
X2997Y4001D01*
X3000Y3991D01*
X3001Y3990D01*
X3004D01*
X3006Y3993D01*
Y3994D01*
X3017Y4020D02*
X3012Y4019D01*
X3011Y4016D01*
Y4011D01*
X3012Y4009D01*
X3017Y4007D01*
X3022D01*
X3027Y4009D01*
X3028Y4011D01*
Y4016D01*
X3027Y4019D01*
X3022Y4020D01*
X3017D01*
X3014Y4019D01*
X3012Y4016D01*
Y4011D01*
X3014Y4009D01*
X3017Y4007D01*
X3022D02*
X3025Y4009D01*
X3027Y4011D01*
Y4016D01*
X3025Y4019D01*
X3022Y4020D01*
X3017Y4007D02*
X3012Y4006D01*
X3011Y4004D01*
X3010Y4001D01*
Y3996D01*
X3011Y3993D01*
X3012Y3991D01*
X3017Y3990D01*
X3022D01*
X3027Y3991D01*
X3028Y3993D01*
X3030Y3996D01*
Y4001D01*
X3028Y4004D01*
X3027Y4006D01*
X3022Y4007D01*
X3017D02*
X3014Y4006D01*
X3012Y4004D01*
X3011Y4001D01*
Y3996D01*
X3012Y3993D01*
X3014Y3991D01*
X3017Y3990D01*
X3022D02*
X3025Y3991D01*
X3027Y3993D01*
X3028Y3996D01*
Y4001D01*
X3027Y4004D01*
X3025Y4006D01*
X3022Y4007D01*
X3016Y3281D02*
Y3311D01*
X3014Y3281D02*
Y3311D01*
X3020Y3281D02*
X3003D01*
X2999Y3282D01*
X2997Y3284D01*
X2996Y3286D01*
Y3289D01*
X2997Y3292D01*
X2999Y3294D01*
X3003Y3295D01*
X3014D01*
X3003Y3281D02*
X3000Y3282D01*
X2999Y3284D01*
X2997Y3286D01*
Y3289D01*
X2999Y3292D01*
X3000Y3294D01*
X3003Y3295D01*
X3020Y3311D02*
X3010D01*
X3007Y3295D02*
X3004Y3296D01*
X3003Y3298D01*
X2999Y3308D01*
X2997Y3309D01*
X2996D01*
X2994Y3308D01*
X3004Y3296D02*
X3003Y3299D01*
X3000Y3309D01*
X2999Y3311D01*
X2996D01*
X2994Y3308D01*
Y3306D01*
X2989Y3286D02*
X2988Y3288D01*
X2989Y3289D01*
X2990Y3288D01*
Y3286D01*
X2989Y3284D01*
X2988Y3282D01*
X2983Y3281D01*
X2978D01*
X2973Y3282D01*
X2972Y3285D01*
Y3289D01*
X2973Y3292D01*
X2978Y3294D01*
X2982D01*
X2978Y3281D02*
X2975Y3282D01*
X2973Y3285D01*
Y3289D01*
X2975Y3292D01*
X2978Y3294D01*
X2975Y3295D01*
X2972Y3298D01*
X2970Y3301D01*
Y3305D01*
X2972Y3308D01*
X2973Y3309D01*
X2978Y3311D01*
X2983D01*
X2988Y3309D01*
X2989Y3308D01*
X2990Y3305D01*
Y3304D01*
X2989Y3302D01*
X2988Y3304D01*
X2989Y3305D01*
X2973Y3296D02*
X2972Y3301D01*
Y3305D01*
X2973Y3308D01*
X2975Y3309D01*
X2978Y3311D01*
X3141Y3485D02*
Y3515D01*
X3139Y3485D02*
Y3515D01*
X3145Y3485D02*
X3128D01*
X3124Y3486D01*
X3122Y3488D01*
X3121Y3491D01*
Y3494D01*
X3122Y3496D01*
X3124Y3498D01*
X3128Y3499D01*
X3139D01*
X3128Y3485D02*
X3125Y3486D01*
X3124Y3488D01*
X3122Y3491D01*
Y3494D01*
X3124Y3496D01*
X3125Y3498D01*
X3128Y3499D01*
X3145Y3515D02*
X3135D01*
X3132Y3499D02*
X3129Y3501D01*
X3128Y3502D01*
X3124Y3512D01*
X3122Y3514D01*
X3121D01*
X3119Y3512D01*
X3129Y3501D02*
X3128Y3504D01*
X3125Y3514D01*
X3124Y3515D01*
X3121D01*
X3119Y3512D01*
Y3511D01*
X3114Y3491D02*
X3113Y3492D01*
X3114Y3494D01*
X3115Y3492D01*
Y3491D01*
X3114Y3488D01*
X3113Y3486D01*
X3108Y3485D01*
X3103D01*
X3098Y3486D01*
X3097Y3488D01*
X3095Y3491D01*
Y3494D01*
X3097Y3496D01*
X3101Y3499D01*
X3108Y3502D01*
X3111Y3504D01*
X3114Y3506D01*
X3115Y3511D01*
Y3515D01*
X3103Y3485D02*
X3100Y3486D01*
X3098Y3488D01*
X3097Y3491D01*
Y3494D01*
X3098Y3496D01*
X3103Y3499D01*
X3108Y3502D01*
X3115Y3512D02*
X3114Y3511D01*
X3111D01*
X3104Y3514D01*
X3100D01*
X3097Y3512D01*
X3095Y3511D01*
Y3508D01*
X3111Y3511D02*
X3104Y3515D01*
X3098D01*
X3097Y3514D01*
X3095Y3511D01*
X3104Y3665D02*
Y3635D01*
X3106Y3665D02*
Y3635D01*
X3100Y3665D02*
X3117D01*
X3121Y3664D01*
X3123Y3662D01*
X3124Y3659D01*
Y3656D01*
X3123Y3654D01*
X3121Y3652D01*
X3117Y3651D01*
X3106D01*
X3117Y3665D02*
X3120Y3664D01*
X3121Y3662D01*
X3123Y3659D01*
Y3656D01*
X3121Y3654D01*
X3120Y3652D01*
X3117Y3651D01*
X3100Y3635D02*
X3110D01*
X3113Y3651D02*
X3116Y3649D01*
X3117Y3648D01*
X3121Y3638D01*
X3123Y3636D01*
X3124D01*
X3126Y3638D01*
X3116Y3649D02*
X3117Y3646D01*
X3120Y3636D01*
X3121Y3635D01*
X3124D01*
X3126Y3638D01*
Y3639D01*
X3130Y3659D02*
X3132Y3661D01*
X3137Y3665D01*
Y3635D01*
X3135Y3664D02*
Y3635D01*
X3130D02*
X3142D01*
X3210Y3274D02*
X3240D01*
X3210Y3276D02*
X3240D01*
X3210Y3270D02*
Y3287D01*
X3211Y3291D01*
X3213Y3293D01*
X3216Y3294D01*
X3220D01*
X3223Y3293D01*
X3224Y3291D01*
X3226Y3287D01*
Y3276D01*
X3210Y3287D02*
X3211Y3290D01*
X3213Y3291D01*
X3216Y3293D01*
X3220D01*
X3223Y3291D01*
X3224Y3290D01*
X3226Y3287D01*
X3240Y3270D02*
Y3280D01*
X3216Y3300D02*
X3217Y3301D01*
X3219Y3300D01*
X3217Y3298D01*
X3216D01*
X3213Y3300D01*
X3211Y3301D01*
X3210Y3305D01*
Y3311D01*
X3211Y3315D01*
X3213Y3317D01*
X3216Y3318D01*
X3219D01*
X3221Y3317D01*
X3224Y3313D01*
X3227Y3305D01*
X3229Y3303D01*
X3231Y3300D01*
X3236Y3298D01*
X3240D01*
X3210Y3311D02*
X3211Y3314D01*
X3213Y3315D01*
X3216Y3317D01*
X3219D01*
X3221Y3315D01*
X3224Y3311D01*
X3227Y3305D01*
X3237Y3298D02*
X3236Y3300D01*
Y3303D01*
X3239Y3310D01*
Y3314D01*
X3237Y3317D01*
X3236Y3318D01*
X3233D01*
X3236Y3303D02*
X3240Y3310D01*
Y3315D01*
X3239Y3317D01*
X3236Y3318D01*
X4344Y3925D02*
Y3895D01*
X4346Y3925D02*
Y3895D01*
X4340Y3925D02*
X4357D01*
X4361Y3924D01*
X4363Y3922D01*
X4364Y3919D01*
Y3915D01*
X4363Y3912D01*
X4361Y3911D01*
X4357Y3909D01*
X4346D01*
X4357Y3925D02*
X4360Y3924D01*
X4361Y3922D01*
X4363Y3919D01*
Y3915D01*
X4361Y3912D01*
X4360Y3911D01*
X4357Y3909D01*
X4340Y3895D02*
X4350D01*
X4368Y3919D02*
X4371Y3921D01*
X4375Y3925D01*
Y3895D01*
X4374Y3924D02*
Y3895D01*
X4368D02*
X4381D01*
X2999Y3855D02*
Y3825D01*
X3001Y3855D02*
Y3825D01*
X3009Y3846D02*
Y3835D01*
X2995Y3855D02*
X3018D01*
Y3846D01*
X3016Y3855D01*
X3001Y3841D02*
X3009D01*
X2995Y3825D02*
X3005D01*
X3022Y3849D02*
X3025Y3851D01*
X3029Y3855D01*
Y3825D01*
X3028Y3854D02*
Y3825D01*
X3022D02*
X3035D01*
X2994Y3685D02*
Y3655D01*
X2996Y3685D02*
Y3655D01*
X2990Y3685D02*
X3004D01*
X3009Y3684D01*
X3011Y3681D01*
X3013Y3678D01*
X3014Y3674D01*
Y3666D01*
X3013Y3662D01*
X3011Y3659D01*
X3009Y3656D01*
X3004Y3655D01*
X2990D01*
X3004Y3685D02*
X3007Y3684D01*
X3010Y3681D01*
X3011Y3678D01*
X3013Y3674D01*
Y3666D01*
X3011Y3662D01*
X3010Y3659D01*
X3007Y3656D01*
X3004Y3655D01*
X3018Y3679D02*
X3021Y3681D01*
X3025Y3685D01*
Y3655D01*
X3024Y3684D02*
Y3655D01*
X3018D02*
X3031D01*
X4281Y3985D02*
X4276Y3984D01*
X4285D01*
X4281Y3985D01*
X4284Y3988D01*
X4285Y3992D01*
Y3995D01*
X4284Y3999D01*
X4281Y4002D01*
X4278Y4004D01*
X4274Y4005D01*
X4266D01*
X4262Y4004D01*
X4259Y4002D01*
X4256Y3999D01*
X4255Y3995D01*
Y3992D01*
X4256Y3988D01*
X4259Y3985D01*
X4262Y3984D01*
X4285Y3995D02*
X4284Y3998D01*
X4281Y4001D01*
X4278Y4002D01*
X4274Y4004D01*
X4266D01*
X4262Y4002D01*
X4259Y4001D01*
X4256Y3998D01*
X4255Y3995D01*
X4279Y3979D02*
X4281Y3976D01*
X4285Y3972D01*
X4255D01*
X4284Y3974D02*
X4255D01*
Y3979D02*
Y3966D01*
X4279Y3961D02*
X4281Y3958D01*
X4285Y3954D01*
X4255D01*
X4284Y3956D02*
X4255D01*
Y3961D02*
Y3948D01*
X3514Y4000D02*
X3519Y4001D01*
X3510D01*
X3514Y4000D01*
X3511Y3997D01*
X3510Y3993D01*
Y3990D01*
X3511Y3986D01*
X3514Y3983D01*
X3517Y3981D01*
X3521Y3980D01*
X3529D01*
X3533Y3981D01*
X3536Y3983D01*
X3539Y3986D01*
X3540Y3990D01*
Y3993D01*
X3539Y3997D01*
X3536Y4000D01*
X3533Y4001D01*
X3510Y3990D02*
X3511Y3987D01*
X3514Y3984D01*
X3517Y3983D01*
X3521Y3981D01*
X3529D01*
X3533Y3983D01*
X3536Y3984D01*
X3539Y3987D01*
X3540Y3990D01*
X3516Y4006D02*
X3514Y4009D01*
X3510Y4013D01*
X3540D01*
X3511Y4011D02*
X3540D01*
Y4006D02*
Y4019D01*
X3510Y4032D02*
X3511Y4028D01*
X3516Y4025D01*
X3523Y4024D01*
X3527D01*
X3534Y4025D01*
X3539Y4028D01*
X3540Y4032D01*
Y4035D01*
X3539Y4039D01*
X3534Y4042D01*
X3527Y4044D01*
X3523D01*
X3516Y4042D01*
X3511Y4039D01*
X3510Y4035D01*
Y4032D01*
X3511Y4029D01*
X3513Y4028D01*
X3516Y4027D01*
X3523Y4025D01*
X3527D01*
X3534Y4027D01*
X3537Y4028D01*
X3539Y4029D01*
X3540Y4032D01*
Y4035D02*
X3539Y4038D01*
X3537Y4039D01*
X3534Y4041D01*
X3527Y4042D01*
X3523D01*
X3516Y4041D01*
X3513Y4039D01*
X3511Y4038D01*
X3510Y4035D01*
X3591Y3960D02*
X3596Y3961D01*
X3587D01*
X3591Y3960D01*
X3588Y3957D01*
X3587Y3953D01*
Y3950D01*
X3588Y3946D01*
X3591Y3943D01*
X3594Y3941D01*
X3598Y3940D01*
X3606D01*
X3610Y3941D01*
X3613Y3943D01*
X3616Y3946D01*
X3617Y3950D01*
Y3953D01*
X3616Y3957D01*
X3613Y3960D01*
X3610Y3961D01*
X3587Y3950D02*
X3588Y3947D01*
X3591Y3944D01*
X3594Y3943D01*
X3598Y3941D01*
X3606D01*
X3610Y3943D01*
X3613Y3944D01*
X3616Y3947D01*
X3617Y3950D01*
X3597Y3984D02*
X3601Y3983D01*
X3604Y3980D01*
X3606Y3976D01*
Y3974D01*
X3604Y3970D01*
X3601Y3967D01*
X3597Y3966D01*
X3596D01*
X3591Y3967D01*
X3588Y3970D01*
X3587Y3974D01*
Y3977D01*
X3588Y3981D01*
X3591Y3984D01*
X3596Y3986D01*
X3604D01*
X3610Y3984D01*
X3613Y3983D01*
X3616Y3980D01*
X3617Y3976D01*
Y3971D01*
X3616Y3969D01*
X3613Y3967D01*
X3611D01*
X3610Y3969D01*
X3611Y3970D01*
X3613Y3969D01*
X3606Y3974D02*
X3604Y3971D01*
X3601Y3969D01*
X3597Y3967D01*
X3596D01*
X3591Y3969D01*
X3588Y3971D01*
X3587Y3974D01*
Y3977D02*
X3588Y3980D01*
X3591Y3983D01*
X3596Y3984D01*
X3604D01*
X3610Y3983D01*
X3613Y3981D01*
X3616Y3979D01*
X3617Y3976D01*
X3204Y4000D02*
X3209Y4001D01*
X3200D01*
X3204Y4000D01*
X3201Y3997D01*
X3200Y3993D01*
Y3990D01*
X3201Y3986D01*
X3204Y3983D01*
X3207Y3981D01*
X3211Y3980D01*
X3219D01*
X3223Y3981D01*
X3226Y3983D01*
X3229Y3986D01*
X3230Y3990D01*
Y3993D01*
X3229Y3997D01*
X3226Y4000D01*
X3223Y4001D01*
X3200Y3990D02*
X3201Y3987D01*
X3204Y3984D01*
X3207Y3983D01*
X3211Y3981D01*
X3219D01*
X3223Y3983D01*
X3226Y3984D01*
X3229Y3987D01*
X3230Y3990D01*
X3200Y4013D02*
X3201Y4009D01*
X3204Y4007D01*
X3209D01*
X3211Y4009D01*
X3213Y4013D01*
Y4019D01*
X3211Y4023D01*
X3209Y4024D01*
X3204D01*
X3201Y4023D01*
X3200Y4019D01*
Y4013D01*
X3201Y4010D01*
X3204Y4009D01*
X3209D01*
X3211Y4010D01*
X3213Y4013D01*
Y4019D02*
X3211Y4021D01*
X3209Y4023D01*
X3204D01*
X3201Y4021D01*
X3200Y4019D01*
X3213Y4013D02*
X3214Y4009D01*
X3216Y4007D01*
X3219Y4006D01*
X3224D01*
X3227Y4007D01*
X3229Y4009D01*
X3230Y4013D01*
Y4019D01*
X3229Y4023D01*
X3227Y4024D01*
X3224Y4026D01*
X3219D01*
X3216Y4024D01*
X3214Y4023D01*
X3213Y4019D01*
Y4013D02*
X3214Y4010D01*
X3216Y4009D01*
X3219Y4007D01*
X3224D01*
X3227Y4009D01*
X3229Y4010D01*
X3230Y4013D01*
Y4019D02*
X3229Y4021D01*
X3227Y4023D01*
X3224Y4024D01*
X3219D01*
X3216Y4023D01*
X3214Y4021D01*
X3213Y4019D01*
X3274Y4000D02*
X3279Y4001D01*
X3270D01*
X3274Y4000D01*
X3271Y3997D01*
X3270Y3993D01*
Y3990D01*
X3271Y3986D01*
X3274Y3983D01*
X3277Y3981D01*
X3281Y3980D01*
X3289D01*
X3293Y3981D01*
X3296Y3983D01*
X3299Y3986D01*
X3300Y3990D01*
Y3993D01*
X3299Y3997D01*
X3296Y4000D01*
X3293Y4001D01*
X3270Y3990D02*
X3271Y3987D01*
X3274Y3984D01*
X3277Y3983D01*
X3281Y3981D01*
X3289D01*
X3293Y3983D01*
X3296Y3984D01*
X3299Y3987D01*
X3300Y3990D01*
X3270Y4006D02*
X3279D01*
X3276D02*
X3273Y4007D01*
X3270Y4010D01*
Y4013D01*
X3274Y4020D01*
Y4023D01*
X3273Y4024D01*
X3270Y4026D01*
X3273Y4007D02*
X3271Y4010D01*
Y4013D01*
X3274Y4020D01*
X3270Y4026D02*
X3274D01*
X3279Y4024D01*
X3286Y4019D01*
X3289Y4017D01*
X3293Y4016D01*
X3300D01*
X3279Y4024D02*
X3286Y4017D01*
X3289Y4016D01*
X3293Y4014D01*
X3300D01*
X3105Y3295D02*
X3101Y3294D01*
X3110D01*
X3105Y3295D01*
X3108Y3298D01*
X3110Y3302D01*
Y3305D01*
X3108Y3309D01*
X3105Y3312D01*
X3102Y3314D01*
X3098Y3315D01*
X3091D01*
X3087Y3314D01*
X3084Y3312D01*
X3081Y3309D01*
X3080Y3305D01*
Y3302D01*
X3081Y3298D01*
X3084Y3295D01*
X3087Y3294D01*
X3110Y3305D02*
X3108Y3308D01*
X3105Y3311D01*
X3102Y3312D01*
X3098Y3314D01*
X3091D01*
X3087Y3312D01*
X3084Y3311D01*
X3081Y3308D01*
X3080Y3305D01*
X3105Y3272D02*
X3104Y3274D01*
X3102Y3272D01*
X3104Y3271D01*
X3105D01*
X3108Y3272D01*
X3110Y3275D01*
Y3279D01*
X3108Y3284D01*
X3105Y3286D01*
X3102Y3288D01*
X3097Y3289D01*
X3088D01*
X3084Y3288D01*
X3081Y3285D01*
X3080Y3281D01*
Y3278D01*
X3081Y3274D01*
X3084Y3271D01*
X3088Y3269D01*
X3090D01*
X3094Y3271D01*
X3097Y3274D01*
X3098Y3278D01*
Y3279D01*
X3097Y3284D01*
X3094Y3286D01*
X3090Y3288D01*
X3110Y3279D02*
X3108Y3282D01*
X3105Y3285D01*
X3102Y3286D01*
X3097Y3288D01*
X3088D01*
X3084Y3286D01*
X3081Y3284D01*
X3080Y3281D01*
Y3278D02*
X3081Y3275D01*
X3084Y3272D01*
X3088Y3271D01*
X3090D01*
X3094Y3272D01*
X3097Y3275D01*
X3098Y3278D01*
X3181Y3293D02*
X3176Y3292D01*
X3185D01*
X3181Y3293D01*
X3184Y3296D01*
X3185Y3301D01*
Y3303D01*
X3184Y3308D01*
X3181Y3311D01*
X3178Y3312D01*
X3174Y3313D01*
X3166D01*
X3162Y3312D01*
X3159Y3311D01*
X3156Y3308D01*
X3155Y3303D01*
Y3301D01*
X3156Y3296D01*
X3159Y3293D01*
X3162Y3292D01*
X3185Y3303D02*
X3184Y3306D01*
X3181Y3309D01*
X3178Y3311D01*
X3174Y3312D01*
X3166D01*
X3162Y3311D01*
X3159Y3309D01*
X3156Y3306D01*
X3155Y3303D01*
X3185Y3285D02*
X3171Y3288D01*
X3174Y3285D01*
X3175Y3281D01*
Y3276D01*
X3174Y3272D01*
X3171Y3269D01*
X3166Y3268D01*
X3164D01*
X3159Y3269D01*
X3156Y3272D01*
X3155Y3276D01*
Y3281D01*
X3156Y3285D01*
X3158Y3286D01*
X3161Y3288D01*
X3162D01*
X3164Y3286D01*
X3162Y3285D01*
X3161Y3286D01*
X3175Y3276D02*
X3174Y3273D01*
X3171Y3271D01*
X3166Y3269D01*
X3164D01*
X3159Y3271D01*
X3156Y3273D01*
X3155Y3276D01*
X3185Y3285D02*
Y3271D01*
X3184Y3285D02*
Y3278D01*
X3185Y3271D01*
X3694Y3662D02*
X3699Y3663D01*
X3690D01*
X3694Y3662D01*
X3691Y3659D01*
X3690Y3654D01*
Y3652D01*
X3691Y3647D01*
X3694Y3644D01*
X3697Y3643D01*
X3701Y3642D01*
X3709D01*
X3713Y3643D01*
X3716Y3644D01*
X3719Y3647D01*
X3720Y3652D01*
Y3654D01*
X3719Y3659D01*
X3716Y3662D01*
X3713Y3663D01*
X3690Y3652D02*
X3691Y3649D01*
X3694Y3646D01*
X3697Y3644D01*
X3701Y3643D01*
X3709D01*
X3713Y3644D01*
X3716Y3646D01*
X3719Y3649D01*
X3720Y3652D01*
X3696Y3667D02*
X3694Y3670D01*
X3690Y3674D01*
X3720D01*
X3691Y3673D02*
X3720D01*
Y3667D02*
Y3680D01*
D15*
X2605Y3259D02*
X2607Y3265D01*
Y3254D01*
X2605Y3259D01*
X2601Y3263D01*
X2595Y3265D01*
X2590D01*
X2584Y3263D01*
X2580Y3259D01*
Y3255D01*
X2582Y3252D01*
X2584Y3250D01*
X2588Y3248D01*
X2599Y3244D01*
X2603Y3242D01*
X2607Y3238D01*
X2580Y3255D02*
X2584Y3252D01*
X2588Y3250D01*
X2599Y3246D01*
X2603Y3244D01*
X2605Y3242D01*
X2607Y3238D01*
Y3231D01*
X2603Y3227D01*
X2597Y3225D01*
X2591D01*
X2586Y3227D01*
X2582Y3231D01*
X2580Y3236D01*
Y3225D01*
X2582Y3231D01*
X2626Y3265D02*
Y3225D01*
X2628Y3265D02*
Y3225D01*
X2614Y3265D02*
X2613Y3254D01*
Y3265D01*
X2641D01*
Y3254D01*
X2639Y3265D01*
X2620Y3225D02*
X2634D01*
X2647Y3242D02*
X2681D01*
X2692Y3265D02*
Y3225D01*
X2694Y3265D02*
Y3225D01*
X2686Y3265D02*
X2700D01*
X2686Y3225D02*
X2715D01*
Y3236D01*
X2713Y3225D01*
X2726Y3265D02*
Y3225D01*
X2728Y3265D02*
Y3225D01*
X2721Y3265D02*
X2734D01*
X2721Y3225D02*
X2734D01*
X2747Y3265D02*
Y3225D01*
X2749Y3265D02*
X2772Y3229D01*
X2749Y3261D02*
X2772Y3225D01*
Y3265D02*
Y3225D01*
X2741Y3265D02*
X2749D01*
X2766D02*
X2777D01*
X2741Y3225D02*
X2753D01*
X2788Y3265D02*
Y3225D01*
X2790Y3265D02*
Y3225D01*
X2815Y3265D02*
X2790Y3240D01*
X2799Y3248D02*
X2815Y3225D01*
X2797Y3248D02*
X2813Y3225D01*
X2782Y3265D02*
X2796D01*
X2807D02*
X2818D01*
X2782Y3225D02*
X2796D01*
X2807D02*
X2818D01*
X2827Y3265D02*
X2841Y3225D01*
X2829Y3265D02*
X2841Y3231D01*
X2854Y3265D02*
X2841Y3225D01*
X2823Y3265D02*
X2835D01*
X2846D02*
X2858D01*
X2865Y3257D02*
X2867Y3255D01*
X2865Y3254D01*
X2863Y3255D01*
Y3257D01*
X2865Y3261D01*
X2867Y3263D01*
X2872Y3265D01*
X2880D01*
X2886Y3263D01*
X2888Y3261D01*
X2889Y3257D01*
Y3254D01*
X2888Y3250D01*
X2882Y3246D01*
X2872Y3242D01*
X2869Y3240D01*
X2865Y3236D01*
X2863Y3231D01*
Y3225D01*
X2880Y3265D02*
X2884Y3263D01*
X2886Y3261D01*
X2888Y3257D01*
Y3254D01*
X2886Y3250D01*
X2880Y3246D01*
X2872Y3242D01*
X2863Y3229D02*
X2865Y3231D01*
X2869D01*
X2878Y3227D01*
X2884D01*
X2888Y3229D01*
X2889Y3231D01*
Y3235D01*
X2869Y3231D02*
X2878Y3225D01*
X2886D01*
X2888Y3227D01*
X2889Y3231D01*
M02*
